<?xml version="1.0" encoding="utf-8"?>
<!-- Generator: Adobe Illustrator 24.0.1, SVG Export Plug-In . SVG Version: 6.00 Build 0)  -->
<svg version="1.1" xmlns="http://www.w3.org/2000/svg" xmlns:xlink="http://www.w3.org/1999/xlink" x="0px" y="0px"
	 viewBox="0 0 455.3 166.7" style="enable-background:new 0 0 455.3 166.7;" xml:space="preserve">
<style type="text/css">
	.st0{display:none;}
	.st1{display:inline;fill:#EDEDED;}
	.st2{display:inline;fill:#F07C00;}
	.st3{fill:#F07C00;}
	.st4{fill:#003361;}
	.st5{fill:#FFFFFF;}
	.st6{display:inline;}
	.st7{fill:#A8A7A7;}
</style>
<g id="HG_Grau" class="st0">
	<rect x="-42.5" y="-58.4" class="st1" width="568.5" height="283.5"/>
</g>
<g id="HG_Orange" class="st0">
	<rect x="-42.5" y="-58.4" class="st2" width="568.5" height="283.5"/>
</g>
<g id="CMYK_Positive">
	<g>
		<rect x="32.9" y="4.7" class="st3" width="132.7" height="157.3"/>
		<path class="st4" d="M198.4,83.4c0-13.6-11-24.6-24.6-24.6H44c0,0-2.8,0-0.5-1.6l12.7-8.4c0,0,2.3-1.6,5.2-1.6H161
			c0,0,2.8,0,0.5-1.6l-38-25.2h0l-10.9-7.2c0,0-13.4-8.8-26.7,0L75,20.5L52.4,35.4c0,0,0,0-2.3,1.6L11.1,62.8
			C4.4,67.2,0,74.7,0,83.4C0,97,11,108,24.6,108h129.8c0,0,2.8,0,0.5,1.6l-12.7,8.4c0,0-2.3,1.6-5.2,1.6H37.4c0,0-2.8,0-0.5,1.6
			l35,23.2l13.9,9.2c0,0,13.4,8.8,26.7,0l11.4-7.5l21.2-14l36-23.8l1.7-1.1l4.5-3c0.1-0.1,0.2-0.2,0.4-0.2l0,0c0,0,0.1,0,0,0
			c0,0,0,0,2.3-1.6C194.2,99.2,198.4,91.8,198.4,83.4"/>
		<g>
			<path class="st5" d="M23.8,77.4h5.1c-0.2-6.1-3.5-7.9-7-7.9c-5,0-7.4,3.3-7.4,7.1c0,3,1.5,5.3,4.1,7.6l2.4,2.2
				c1.5,1.4,2.6,2.4,2.6,3.8c0,1.1-0.4,2.2-1.7,2.2c-1.7,0-2.1-1.8-2.2-3.2h-5.5c0.2,4.8,3,7.9,7.6,7.9c4.7,0,7.5-3.2,7.5-7.2
				c0-3.1-1.5-5.4-4.2-7.9L22.8,80c-1.2-1.2-2.8-2.4-2.8-3.8c0-1,0.5-2,1.7-2C23.2,74.2,23.6,75.7,23.8,77.4"/>
			<path class="st5" d="M141.4,77.4h5.1c-0.2-6.1-3.5-7.9-7-7.9c-5,0-7.4,3.3-7.4,7.1c0,3,1.5,5.3,4.1,7.6l2.4,2.2
				c1.5,1.4,2.6,2.4,2.6,3.8c0,1.1-0.4,2.2-1.7,2.2c-1.7,0-2.1-1.8-2.2-3.2h-5.5c0.2,4.8,3,7.9,7.6,7.9c4.7,0,7.5-3.2,7.5-7.2
				c0-3.1-1.5-5.4-4.2-7.9l-2.3-2.1c-1.2-1.2-2.8-2.4-2.8-3.8c0-1,0.5-2,1.7-2C140.8,74.2,141.2,75.7,141.4,77.4"/>
			<polygon class="st5" points="117.3,96.8 130.7,96.8 130.7,91.8 123.1,91.8 123.1,70 117.3,70 			"/>
			<polygon class="st5" points="100.8,96.8 114.3,96.8 114.3,91.8 106.6,91.8 106.6,85.6 112.7,85.6 112.7,80.6 106.6,80.6 
				106.6,75 114.2,75 114.2,70 100.8,70 			"/>
			<polygon class="st5" points="87.3,96.8 93.2,96.8 93.2,75 98.2,75 98.2,70 82.3,70 82.3,75 87.3,75 			"/>
			<polygon class="st5" points="66.2,96.8 79.6,96.8 79.6,91.8 72,91.8 72,85.6 78,85.6 78,80.6 72,80.6 72,75 79.6,75 79.6,70 
				66.2,70 			"/>
			<rect x="57.3" y="70" class="st5" width="5.9" height="26.8"/>
			<polygon class="st5" points="34.7,96.9 40.2,96.9 42.8,80.7 43,80.7 45.4,96.9 50.8,96.9 55.3,70 50.1,70 48.1,85 48,85 45.9,70 
				40.4,70 38.1,85.1 38,85.1 36,70 30.2,70 			"/>
			<polygon class="st5" points="172.7,96.8 178.6,96.8 178.6,86.4 184.3,70 178.7,70 176,79.6 173.2,70 167,70 172.7,86.4 			"/>
			<polygon class="st5" points="149.6,96.8 155.4,96.8 155.4,88.2 156.9,85.3 159.8,96.8 166,96.8 161.2,80.5 165.9,70 160.2,70 
				155.4,81.5 155.4,70 149.6,70 			"/>
		</g>
	</g>
	<g>
		<path class="st4" d="M411.1,166.7h10.8v-35h0.1l21.8,35h11.5v-52.3h-10.8v35.1h-0.1l-21.8-35.1h-11.4V166.7z M368.8,166.7h39.7
			V157h-28.2v-12.8h25.4v-8.9h-25.4v-11.2h27.6v-9.7h-39.2V166.7z M326.5,166.7h39.7V157H338v-12.8h25.4v-8.9H338v-11.2h27.6v-9.7
			h-39.2V166.7z M278,166.7h22.6c16,0,23.8-11.3,23.8-26.5c0-17.3-10.2-25.9-23.8-25.9H278V166.7z M289.5,124.1h8.2
			c11.4,0,15.1,6.7,15.1,17.3c0,11.6-6.4,15.7-13.1,15.7h-10.3V124.1z M262.1,166.7h11.5v-52.3h-11.5V166.7z"/>
		<path class="st4" d="M354.5,109.5H366V87.9h21.9V79H366V66.9h25.3v-9.7h-36.8V109.5z M350.2,57.2h-11.5v32.6
			c0,7.8-2.6,11.4-10.9,11.4c-9.3,0-10.8-5.6-10.8-11.4V57.2h-11.5v32.6c0,14.3,8.1,21,22.3,21c14,0,22.4-6.9,22.4-21V57.2z
			 M256.5,109.5h11.7l4.1-11.7h19.6l4,11.7h12l-19.6-52.3h-11.8L256.5,109.5z M282.1,70.1h0.1l6.6,19.2h-13.6L282.1,70.1z"/>
		<path class="st4" d="M414.7,52.3h11.5V9.7h15.7V0H399v9.7h15.7V52.3z M397.4,0h-11.5v32.6c0,7.8-2.6,11.4-10.9,11.4
			c-9.3,0-10.8-5.6-10.8-11.4V0h-11.5v32.6c0,14.3,8.1,21,22.3,21c14,0,22.4-6.9,22.4-21V0z M304.2,52.3h11.7l4.1-11.7h19.6l4,11.7
			h12L335.9,0H324L304.2,52.3z M329.8,12.9h0.1l6.6,19.2h-13.6L329.8,12.9z M273.6,29h12.5c5,0,8.3,2.1,8.3,7.5c0,5.4-4,6.9-8.5,6.9
			h-12.3V29z M262.1,52.3h25.4c9.5,0,18.5-4.5,18.5-15.2c0-6.5-3.2-11.4-9.6-13.3c4.6-2.3,7.1-5.7,7.1-10.9c0-9.8-6.7-13-16.7-13
			h-24.6V52.3z M273.6,8.9h10.8c4.1,0,7.9,1.1,7.9,6c0,4.4-2.9,6.2-7,6.2h-11.7V8.9z"/>
	</g>
</g>
<g id="CMYK_Inverse" class="st0">
	<g class="st6">
		<path class="st4" d="M198.4,83.4c0-13.6-11-24.6-24.6-24.6H44c0,0-2.8,0-0.5-1.6l12.7-8.4c0,0,2.3-1.6,5.2-1.6H161
			c0,0,2.8,0,0.5-1.6l-38-25.2h0l-10.9-7.2c0,0-13.4-8.8-26.7,0L75,20.5L52.4,35.4c0,0,0,0-2.3,1.6L11.1,62.8
			C4.4,67.2,0,74.7,0,83.4C0,97,11,108,24.6,108h129.8c0,0,2.8,0,0.5,1.6l-12.7,8.4c0,0-2.3,1.6-5.2,1.6H37.4c0,0-2.8,0-0.5,1.6
			l35,23.2l13.9,9.2c0,0,13.4,8.8,26.7,0l11.4-7.5l21.2-14l36-23.8l1.7-1.1l4.5-3c0.1-0.1,0.2-0.2,0.4-0.2l0,0c0,0,0.1,0,0,0
			c0,0,0,0,2.3-1.6C194.2,99.2,198.4,91.8,198.4,83.4"/>
		<g>
			<path class="st5" d="M23.8,77.4h5.1c-0.2-6.1-3.5-7.9-7-7.9c-5,0-7.4,3.3-7.4,7.1c0,3,1.5,5.3,4.1,7.6l2.4,2.2
				c1.5,1.4,2.6,2.4,2.6,3.8c0,1.1-0.4,2.2-1.7,2.2c-1.7,0-2.1-1.8-2.2-3.2h-5.5c0.2,4.8,3,7.9,7.6,7.9c4.7,0,7.5-3.2,7.5-7.2
				c0-3.1-1.5-5.4-4.2-7.9L22.8,80c-1.2-1.2-2.8-2.4-2.8-3.8c0-1,0.5-2,1.7-2C23.2,74.2,23.6,75.7,23.8,77.4"/>
			<path class="st5" d="M141.4,77.4h5.1c-0.2-6.1-3.5-7.9-7-7.9c-5,0-7.4,3.3-7.4,7.1c0,3,1.5,5.3,4.1,7.6l2.4,2.2
				c1.5,1.4,2.6,2.4,2.6,3.8c0,1.1-0.4,2.2-1.7,2.2c-1.7,0-2.1-1.8-2.2-3.2h-5.5c0.2,4.8,3,7.9,7.6,7.9c4.7,0,7.5-3.2,7.5-7.2
				c0-3.1-1.5-5.4-4.2-7.9l-2.3-2.1c-1.2-1.2-2.8-2.4-2.8-3.8c0-1,0.5-2,1.7-2C140.8,74.2,141.2,75.7,141.4,77.4"/>
			<polygon class="st5" points="117.3,96.8 130.7,96.8 130.7,91.8 123.1,91.8 123.1,70 117.3,70 			"/>
			<polygon class="st5" points="100.8,96.8 114.3,96.8 114.3,91.8 106.6,91.8 106.6,85.6 112.7,85.6 112.7,80.6 106.6,80.6 
				106.6,75 114.2,75 114.2,70 100.8,70 			"/>
			<polygon class="st5" points="87.3,96.8 93.2,96.8 93.2,75 98.2,75 98.2,70 82.3,70 82.3,75 87.3,75 			"/>
			<polygon class="st5" points="66.2,96.8 79.6,96.8 79.6,91.8 72,91.8 72,85.6 78,85.6 78,80.6 72,80.6 72,75 79.6,75 79.6,70 
				66.2,70 			"/>
			<rect x="57.3" y="70" class="st5" width="5.9" height="26.8"/>
			<polygon class="st5" points="34.7,96.9 40.2,96.9 42.8,80.7 43,80.7 45.4,96.9 50.8,96.9 55.3,70 50.1,70 48.1,85 48,85 45.9,70 
				40.4,70 38.1,85.1 38,85.1 36,70 30.2,70 			"/>
			<polygon class="st5" points="172.7,96.8 178.6,96.8 178.6,86.4 184.3,70 178.7,70 176,79.6 173.2,70 167,70 172.7,86.4 			"/>
			<polygon class="st5" points="149.6,96.8 155.4,96.8 155.4,88.2 156.9,85.3 159.8,96.8 166,96.8 161.2,80.5 165.9,70 160.2,70 
				155.4,81.5 155.4,70 149.6,70 			"/>
		</g>
		<g>
			<path class="st5" d="M32.9,42.7v-38h64.3c1.1-0.1,2.1-0.1,3.1,0h65.3V54h4.7V4.7V0h-4.7H32.9h-4.7v4.7v41.1L32.9,42.7z"/>
			<path class="st5" d="M165.5,124v38h-64.3c-0.5,0-1,0-1.5,0c-0.5,0-1.1,0-1.6,0H32.9v-49.3h-4.7V162v4.7h4.7h132.7h4.7V162v-41.1
				L165.5,124z"/>
		</g>
	</g>
	<g class="st6">
		<path class="st5" d="M411.1,166.7h10.8v-35h0.1l21.8,35h11.5v-52.3h-10.8v35.1h-0.1l-21.8-35.1h-11.4V166.7z M368.8,166.7h39.7
			V157h-28.2v-12.8h25.4v-8.9h-25.4v-11.2h27.6v-9.7h-39.2V166.7z M326.5,166.7h39.7V157H338v-12.8h25.4v-8.9H338v-11.2h27.6v-9.7
			h-39.2V166.7z M278,166.7h22.6c16,0,23.8-11.3,23.8-26.5c0-17.3-10.2-25.9-23.8-25.9H278V166.7z M289.5,124.1h8.2
			c11.4,0,15.1,6.7,15.1,17.3c0,11.6-6.4,15.7-13.1,15.7h-10.3V124.1z M262.1,166.7h11.5v-52.3h-11.5V166.7z"/>
		<path class="st5" d="M354.5,109.5H366V87.9h21.9V79H366V66.9h25.3v-9.7h-36.8V109.5z M350.2,57.2h-11.5v32.6
			c0,7.8-2.6,11.4-10.9,11.4c-9.3,0-10.8-5.6-10.8-11.4V57.2h-11.5v32.6c0,14.3,8.1,21,22.3,21c14,0,22.4-6.9,22.4-21V57.2z
			 M256.5,109.5h11.7l4.1-11.7h19.6l4,11.7h12l-19.6-52.3h-11.8L256.5,109.5z M282.1,70.1h0.1l6.6,19.2h-13.6L282.1,70.1z"/>
		<path class="st5" d="M414.7,52.3h11.5V9.7h15.7V0H399v9.7h15.7V52.3z M397.4,0h-11.5v32.6c0,7.8-2.6,11.4-10.9,11.4
			c-9.3,0-10.8-5.6-10.8-11.4V0h-11.5v32.6c0,14.3,8.1,21,22.3,21c14,0,22.4-6.9,22.4-21V0z M304.2,52.3h11.7l4.1-11.7h19.6l4,11.7
			h12L335.9,0H324L304.2,52.3z M329.8,12.9h0.1l6.6,19.2h-13.6L329.8,12.9z M273.6,29h12.5c5,0,8.3,2.1,8.3,7.5c0,5.4-4,6.9-8.5,6.9
			h-12.3V29z M262.1,52.3h25.4c9.5,0,18.5-4.5,18.5-15.2c0-6.5-3.2-11.4-9.6-13.3c4.6-2.3,7.1-5.7,7.1-10.9c0-9.8-6.7-13-16.7-13
			h-24.6V52.3z M273.6,8.9h10.8c4.1,0,7.9,1.1,7.9,6c0,4.4-2.9,6.2-7,6.2h-11.7V8.9z"/>
	</g>
</g>
<g id="PANTONE_Positive" class="st0">
	<g class="st6">
		<rect x="32.9" y="4.7" class="st3" width="132.7" height="157.3"/>
		<g>
			<path class="st4" d="M198.4,83.4c0-13.6-11-24.6-24.6-24.6H44c0,0-2.8,0-0.5-1.6l12.7-8.4c0,0,2.3-1.6,5.2-1.6H161
				c0,0,2.8,0,0.5-1.6l-38-25.2h0l-10.9-7.2c0,0-13.4-8.8-26.7,0L75,20.5L52.4,35.4c0,0,0,0-2.3,1.6L11.1,62.8
				C4.4,67.2,0,74.7,0,83.4C0,97,11,108,24.6,108h129.8c0,0,2.8,0,0.5,1.6l-12.7,8.4c0,0-2.3,1.6-5.2,1.6H37.4c0,0-2.8,0-0.5,1.6
				l35,23.2l13.9,9.2c0,0,13.4,8.8,26.7,0l11.4-7.5l21.2-14l36-23.8l1.7-1.1l4.5-3c0.1-0.1,0.2-0.2,0.4-0.2l0,0c0,0,0.1,0,0,0
				c0,0,0,0,2.3-1.6C194.2,99.2,198.4,91.8,198.4,83.4"/>
			<g>
				<path class="st5" d="M23.8,77.4h5.1c-0.2-6.1-3.5-7.9-7-7.9c-5,0-7.4,3.3-7.4,7.1c0,3,1.5,5.3,4.1,7.6l2.4,2.2
					c1.5,1.4,2.6,2.4,2.6,3.8c0,1.1-0.4,2.2-1.7,2.2c-1.7,0-2.1-1.8-2.2-3.2h-5.5c0.2,4.8,3,7.9,7.6,7.9c4.7,0,7.5-3.2,7.5-7.2
					c0-3.1-1.5-5.4-4.2-7.9L22.8,80c-1.2-1.2-2.8-2.4-2.8-3.8c0-1,0.5-2,1.7-2C23.2,74.2,23.6,75.7,23.8,77.4"/>
				<path class="st5" d="M141.4,77.4h5.1c-0.2-6.1-3.5-7.9-7-7.9c-5,0-7.4,3.3-7.4,7.1c0,3,1.5,5.3,4.1,7.6l2.4,2.2
					c1.5,1.4,2.6,2.4,2.6,3.8c0,1.1-0.4,2.2-1.7,2.2c-1.7,0-2.1-1.8-2.2-3.2h-5.5c0.2,4.8,3,7.9,7.6,7.9c4.7,0,7.5-3.2,7.5-7.2
					c0-3.1-1.5-5.4-4.2-7.9l-2.3-2.1c-1.2-1.2-2.8-2.4-2.8-3.8c0-1,0.5-2,1.7-2C140.8,74.2,141.2,75.7,141.4,77.4"/>
				<polygon class="st5" points="117.3,96.8 130.7,96.8 130.7,91.8 123.1,91.8 123.1,70 117.3,70 				"/>
				<polygon class="st5" points="100.8,96.8 114.3,96.8 114.3,91.8 106.6,91.8 106.6,85.6 112.7,85.6 112.7,80.6 106.6,80.6 
					106.6,75 114.2,75 114.2,70 100.8,70 				"/>
				<polygon class="st5" points="87.3,96.8 93.2,96.8 93.2,75 98.2,75 98.2,70 82.3,70 82.3,75 87.3,75 				"/>
				<polygon class="st5" points="66.2,96.8 79.6,96.8 79.6,91.8 72,91.8 72,85.6 78,85.6 78,80.6 72,80.6 72,75 79.6,75 79.6,70 
					66.2,70 				"/>
				<rect x="57.3" y="70" class="st5" width="5.9" height="26.8"/>
				<polygon class="st5" points="34.7,96.9 40.2,96.9 42.8,80.7 43,80.7 45.4,96.9 50.8,96.9 55.3,70 50.1,70 48.1,85 48,85 
					45.9,70 40.4,70 38.1,85.1 38,85.1 36,70 30.2,70 				"/>
				<polygon class="st5" points="172.7,96.8 178.6,96.8 178.6,86.4 184.3,70 178.7,70 176,79.6 173.2,70 167,70 172.7,86.4 				"/>
				<polygon class="st5" points="149.6,96.8 155.4,96.8 155.4,88.2 156.9,85.3 159.8,96.8 166,96.8 161.2,80.5 165.9,70 160.2,70 
					155.4,81.5 155.4,70 149.6,70 				"/>
			</g>
		</g>
	</g>
	<g class="st6">
		<path class="st4" d="M411.1,166.7h10.8v-35h0.1l21.8,35h11.5v-52.3h-10.8v35.1h-0.1l-21.8-35.1h-11.4V166.7z M368.8,166.7h39.7
			V157h-28.2v-12.8h25.4v-8.9h-25.4v-11.2h27.6v-9.7h-39.2V166.7z M326.5,166.7h39.7V157H338v-12.8h25.4v-8.9H338v-11.2h27.6v-9.7
			h-39.2V166.7z M278,166.7h22.6c16,0,23.8-11.3,23.8-26.5c0-17.3-10.2-25.9-23.8-25.9H278V166.7z M289.5,124.1h8.2
			c11.4,0,15.1,6.7,15.1,17.3c0,11.6-6.4,15.7-13.1,15.7h-10.3V124.1z M262.1,166.7h11.5v-52.3h-11.5V166.7z"/>
		<path class="st4" d="M354.5,109.5H366V87.9h21.9V79H366V66.9h25.3v-9.7h-36.8V109.5z M350.2,57.2h-11.5v32.6
			c0,7.8-2.6,11.4-10.9,11.4c-9.3,0-10.8-5.6-10.8-11.4V57.2h-11.5v32.6c0,14.3,8.1,21,22.3,21c14,0,22.4-6.9,22.4-21V57.2z
			 M256.5,109.5h11.7l4.1-11.7h19.6l4,11.7h12l-19.6-52.3h-11.8L256.5,109.5z M282.1,70.1h0.1l6.6,19.2h-13.6L282.1,70.1z"/>
		<path class="st4" d="M414.7,52.3h11.5V9.7h15.7V0H399v9.7h15.7V52.3z M397.4,0h-11.5v32.6c0,7.8-2.6,11.4-10.9,11.4
			c-9.3,0-10.8-5.6-10.8-11.4V0h-11.5v32.6c0,14.3,8.1,21,22.3,21c14,0,22.4-6.9,22.4-21V0z M304.2,52.3h11.7l4.1-11.7h19.6l4,11.7
			h12L335.9,0H324L304.2,52.3z M329.8,12.9h0.1l6.6,19.2h-13.6L329.8,12.9z M273.6,29h12.5c5,0,8.3,2.1,8.3,7.5c0,5.4-4,6.9-8.5,6.9
			h-12.3V29z M262.1,52.3h25.4c9.5,0,18.5-4.5,18.5-15.2c0-6.5-3.2-11.4-9.6-13.3c4.6-2.3,7.1-5.7,7.1-10.9c0-9.8-6.7-13-16.7-13
			h-24.6V52.3z M273.6,8.9h10.8c4.1,0,7.9,1.1,7.9,6c0,4.4-2.9,6.2-7,6.2h-11.7V8.9z"/>
	</g>
</g>
<g id="PANTONE_Inverse" class="st0">
	<g class="st6">
		<path class="st4" d="M198.4,83.4c0-13.6-11-24.6-24.6-24.6H44c0,0-2.8,0-0.5-1.6l12.7-8.4c0,0,2.3-1.6,5.2-1.6H161
			c0,0,2.8,0,0.5-1.6l-38-25.2h0l-10.9-7.2c0,0-13.4-8.8-26.7,0L75,20.5L52.4,35.4c0,0,0,0-2.3,1.6L11.1,62.8
			C4.4,67.2,0,74.7,0,83.4C0,97,11,108,24.6,108h129.8c0,0,2.8,0,0.5,1.6l-12.7,8.4c0,0-2.3,1.6-5.2,1.6H37.4c0,0-2.8,0-0.5,1.6
			l35,23.2l13.9,9.2c0,0,13.4,8.8,26.7,0l11.4-7.5l21.2-14l36-23.8l1.7-1.1l4.5-3c0.1-0.1,0.2-0.2,0.4-0.2l0,0c0,0,0.1,0,0,0
			c0,0,0,0,2.3-1.6C194.2,99.2,198.4,91.8,198.4,83.4"/>
		<g>
			<path class="st5" d="M23.8,77.4h5.1c-0.2-6.1-3.5-7.9-7-7.9c-5,0-7.4,3.3-7.4,7.1c0,3,1.5,5.3,4.1,7.6l2.4,2.2
				c1.5,1.4,2.6,2.4,2.6,3.8c0,1.1-0.4,2.2-1.7,2.2c-1.7,0-2.1-1.8-2.2-3.2h-5.5c0.2,4.8,3,7.9,7.6,7.9c4.7,0,7.5-3.2,7.5-7.2
				c0-3.1-1.5-5.4-4.2-7.9L22.8,80c-1.2-1.2-2.8-2.4-2.8-3.8c0-1,0.5-2,1.7-2C23.2,74.2,23.6,75.7,23.8,77.4"/>
			<path class="st5" d="M141.4,77.4h5.1c-0.2-6.1-3.5-7.9-7-7.9c-5,0-7.4,3.3-7.4,7.1c0,3,1.5,5.3,4.1,7.6l2.4,2.2
				c1.5,1.4,2.6,2.4,2.6,3.8c0,1.1-0.4,2.2-1.7,2.2c-1.7,0-2.1-1.8-2.2-3.2h-5.5c0.2,4.8,3,7.9,7.6,7.9c4.7,0,7.5-3.2,7.5-7.2
				c0-3.1-1.5-5.4-4.2-7.9l-2.3-2.1c-1.2-1.2-2.8-2.4-2.8-3.8c0-1,0.5-2,1.7-2C140.8,74.2,141.2,75.7,141.4,77.4"/>
			<polygon class="st5" points="117.3,96.8 130.7,96.8 130.7,91.8 123.1,91.8 123.1,70 117.3,70 			"/>
			<polygon class="st5" points="100.8,96.8 114.3,96.8 114.3,91.8 106.6,91.8 106.6,85.6 112.7,85.6 112.7,80.6 106.6,80.6 
				106.6,75 114.2,75 114.2,70 100.8,70 			"/>
			<polygon class="st5" points="87.3,96.8 93.2,96.8 93.2,75 98.2,75 98.2,70 82.3,70 82.3,75 87.3,75 			"/>
			<polygon class="st5" points="66.2,96.8 79.6,96.8 79.6,91.8 72,91.8 72,85.6 78,85.6 78,80.6 72,80.6 72,75 79.6,75 79.6,70 
				66.2,70 			"/>
			<rect x="57.3" y="70" class="st5" width="5.9" height="26.8"/>
			<polygon class="st5" points="34.7,96.9 40.2,96.9 42.8,80.7 43,80.7 45.4,96.9 50.8,96.9 55.3,70 50.1,70 48.1,85 48,85 45.9,70 
				40.4,70 38.1,85.1 38,85.1 36,70 30.2,70 			"/>
			<polygon class="st5" points="172.7,96.8 178.6,96.8 178.6,86.4 184.3,70 178.7,70 176,79.6 173.2,70 167,70 172.7,86.4 			"/>
			<polygon class="st5" points="149.6,96.8 155.4,96.8 155.4,88.2 156.9,85.3 159.8,96.8 166,96.8 161.2,80.5 165.9,70 160.2,70 
				155.4,81.5 155.4,70 149.6,70 			"/>
		</g>
		<g>
			<path class="st5" d="M32.9,42.7v-38h64.3c1.1-0.1,2.1-0.1,3.1,0h65.3V54h4.7V4.7V0h-4.7H32.9h-4.7v4.7v41.1L32.9,42.7z"/>
			<path class="st5" d="M165.5,124v38h-64.3c-0.5,0-1,0-1.5,0c-0.5,0-1.1,0-1.6,0H32.9v-49.3h-4.7V162v4.7h4.7h132.7h4.7V162v-41.1
				L165.5,124z"/>
		</g>
	</g>
	<g class="st6">
		<path class="st5" d="M411.1,166.7h10.8v-35h0.1l21.8,35h11.5v-52.3h-10.8v35.1h-0.1l-21.8-35.1h-11.4V166.7z M368.8,166.7h39.7
			V157h-28.2v-12.8h25.4v-8.9h-25.4v-11.2h27.6v-9.7h-39.2V166.7z M326.5,166.7h39.7V157H338v-12.8h25.4v-8.9H338v-11.2h27.6v-9.7
			h-39.2V166.7z M278,166.7h22.6c16,0,23.8-11.3,23.8-26.5c0-17.3-10.2-25.9-23.8-25.9H278V166.7z M289.5,124.1h8.2
			c11.4,0,15.1,6.7,15.1,17.3c0,11.6-6.4,15.7-13.1,15.7h-10.3V124.1z M262.1,166.7h11.5v-52.3h-11.5V166.7z"/>
		<path class="st5" d="M354.5,109.5H366V87.9h21.9V79H366V66.9h25.3v-9.7h-36.8V109.5z M350.2,57.2h-11.5v32.6
			c0,7.8-2.6,11.4-10.9,11.4c-9.3,0-10.8-5.6-10.8-11.4V57.2h-11.5v32.6c0,14.3,8.1,21,22.3,21c14,0,22.4-6.9,22.4-21V57.2z
			 M256.5,109.5h11.7l4.1-11.7h19.6l4,11.7h12l-19.6-52.3h-11.8L256.5,109.5z M282.1,70.1h0.1l6.6,19.2h-13.6L282.1,70.1z"/>
		<path class="st5" d="M414.7,52.3h11.5V9.7h15.7V0H399v9.7h15.7V52.3z M397.4,0h-11.5v32.6c0,7.8-2.6,11.4-10.9,11.4
			c-9.3,0-10.8-5.6-10.8-11.4V0h-11.5v32.6c0,14.3,8.1,21,22.3,21c14,0,22.4-6.9,22.4-21V0z M304.2,52.3h11.7l4.1-11.7h19.6l4,11.7
			h12L335.9,0H324L304.2,52.3z M329.8,12.9h0.1l6.6,19.2h-13.6L329.8,12.9z M273.6,29h12.5c5,0,8.3,2.1,8.3,7.5c0,5.4-4,6.9-8.5,6.9
			h-12.3V29z M262.1,52.3h25.4c9.5,0,18.5-4.5,18.5-15.2c0-6.5-3.2-11.4-9.6-13.3c4.6-2.3,7.1-5.7,7.1-10.9c0-9.8-6.7-13-16.7-13
			h-24.6V52.3z M273.6,8.9h10.8c4.1,0,7.9,1.1,7.9,6c0,4.4-2.9,6.2-7,6.2h-11.7V8.9z"/>
	</g>
</g>
<g id="Grey_Positive" class="st0">
	<g class="st6">
		<rect x="32.9" y="4.7" class="st7" width="132.7" height="157.3"/>
		<g>
			<path d="M198.4,83.4c0-13.6-11-24.6-24.6-24.6H44c0,0-2.8,0-0.5-1.6l12.7-8.4c0,0,2.3-1.6,5.2-1.6H161c0,0,2.8,0,0.5-1.6
				l-38-25.2h0l-10.9-7.2c0,0-13.4-8.8-26.7,0L75,20.5L52.4,35.4c0,0,0,0-2.3,1.6L11.1,62.8C4.4,67.2,0,74.7,0,83.4
				C0,97,11,108,24.6,108h129.8c0,0,2.8,0,0.5,1.6l-12.7,8.4c0,0-2.3,1.6-5.2,1.6H37.4c0,0-2.8,0-0.5,1.6l35,23.2l13.9,9.2
				c0,0,13.4,8.8,26.7,0l11.4-7.5l21.2-14l36-23.8l1.7-1.1l4.5-3c0.1-0.1,0.2-0.2,0.4-0.2l0,0c0,0,0.1,0,0,0c0,0,0,0,2.3-1.6
				C194.2,99.2,198.4,91.8,198.4,83.4"/>
			<g>
				<path class="st5" d="M23.8,77.4h5.1c-0.2-6.1-3.5-7.9-7-7.9c-5,0-7.4,3.3-7.4,7.1c0,3,1.5,5.3,4.1,7.6l2.4,2.2
					c1.5,1.4,2.6,2.4,2.6,3.8c0,1.1-0.4,2.2-1.7,2.2c-1.7,0-2.1-1.8-2.2-3.2h-5.5c0.2,4.8,3,7.9,7.6,7.9c4.7,0,7.5-3.2,7.5-7.2
					c0-3.1-1.5-5.4-4.2-7.9L22.8,80c-1.2-1.2-2.8-2.4-2.8-3.8c0-1,0.5-2,1.7-2C23.2,74.2,23.6,75.7,23.8,77.4"/>
				<path class="st5" d="M141.4,77.4h5.1c-0.2-6.1-3.5-7.9-7-7.9c-5,0-7.4,3.3-7.4,7.1c0,3,1.5,5.3,4.1,7.6l2.4,2.2
					c1.5,1.4,2.6,2.4,2.6,3.8c0,1.1-0.4,2.2-1.7,2.2c-1.7,0-2.1-1.8-2.2-3.2h-5.5c0.2,4.8,3,7.9,7.6,7.9c4.7,0,7.5-3.2,7.5-7.2
					c0-3.1-1.5-5.4-4.2-7.9l-2.3-2.1c-1.2-1.2-2.8-2.4-2.8-3.8c0-1,0.5-2,1.7-2C140.8,74.2,141.2,75.7,141.4,77.4"/>
				<polygon class="st5" points="117.3,96.8 130.7,96.8 130.7,91.8 123.1,91.8 123.1,70 117.3,70 				"/>
				<polygon class="st5" points="100.8,96.8 114.3,96.8 114.3,91.8 106.6,91.8 106.6,85.6 112.7,85.6 112.7,80.6 106.6,80.6 
					106.6,75 114.2,75 114.2,70 100.8,70 				"/>
				<polygon class="st5" points="87.3,96.8 93.2,96.8 93.2,75 98.2,75 98.2,70 82.3,70 82.3,75 87.3,75 				"/>
				<polygon class="st5" points="66.2,96.8 79.6,96.8 79.6,91.8 72,91.8 72,85.6 78,85.6 78,80.6 72,80.6 72,75 79.6,75 79.6,70 
					66.2,70 				"/>
				<rect x="57.3" y="70" class="st5" width="5.9" height="26.8"/>
				<polygon class="st5" points="34.7,96.9 40.2,96.9 42.8,80.7 43,80.7 45.4,96.9 50.8,96.9 55.3,70 50.1,70 48.1,85 48,85 
					45.9,70 40.4,70 38.1,85.1 38,85.1 36,70 30.2,70 				"/>
				<polygon class="st5" points="172.7,96.8 178.6,96.8 178.6,86.4 184.3,70 178.7,70 176,79.6 173.2,70 167,70 172.7,86.4 				"/>
				<polygon class="st5" points="149.6,96.8 155.4,96.8 155.4,88.2 156.9,85.3 159.8,96.8 166,96.8 161.2,80.5 165.9,70 160.2,70 
					155.4,81.5 155.4,70 149.6,70 				"/>
			</g>
		</g>
	</g>
	<g class="st6">
		<path d="M411.1,166.7h10.8v-35h0.1l21.8,35h11.5v-52.3h-10.8v35.1h-0.1l-21.8-35.1h-11.4V166.7z M368.8,166.7h39.7V157h-28.2
			v-12.8h25.4v-8.9h-25.4v-11.2h27.6v-9.7h-39.2V166.7z M326.5,166.7h39.7V157H338v-12.8h25.4v-8.9H338v-11.2h27.6v-9.7h-39.2V166.7
			z M278,166.7h22.6c16,0,23.8-11.3,23.8-26.5c0-17.3-10.2-25.9-23.8-25.9H278V166.7z M289.5,124.1h8.2c11.4,0,15.1,6.7,15.1,17.3
			c0,11.6-6.4,15.7-13.1,15.7h-10.3V124.1z M262.1,166.7h11.5v-52.3h-11.5V166.7z"/>
		<path d="M354.5,109.5H366V87.9h21.9V79H366V66.9h25.3v-9.7h-36.8V109.5z M350.2,57.2h-11.5v32.6c0,7.8-2.6,11.4-10.9,11.4
			c-9.3,0-10.8-5.6-10.8-11.4V57.2h-11.5v32.6c0,14.3,8.1,21,22.3,21c14,0,22.4-6.9,22.4-21V57.2z M256.5,109.5h11.7l4.1-11.7h19.6
			l4,11.7h12l-19.6-52.3h-11.8L256.5,109.5z M282.1,70.1h0.1l6.6,19.2h-13.6L282.1,70.1z"/>
		<path d="M414.7,52.3h11.5V9.7h15.7V0H399v9.7h15.7V52.3z M397.4,0h-11.5v32.6c0,7.8-2.6,11.4-10.9,11.4c-9.3,0-10.8-5.6-10.8-11.4
			V0h-11.5v32.6c0,14.3,8.1,21,22.3,21c14,0,22.4-6.9,22.4-21V0z M304.2,52.3h11.7l4.1-11.7h19.6l4,11.7h12L335.9,0H324L304.2,52.3z
			 M329.8,12.9h0.1l6.6,19.2h-13.6L329.8,12.9z M273.6,29h12.5c5,0,8.3,2.1,8.3,7.5c0,5.4-4,6.9-8.5,6.9h-12.3V29z M262.1,52.3h25.4
			c9.5,0,18.5-4.5,18.5-15.2c0-6.5-3.2-11.4-9.6-13.3c4.6-2.3,7.1-5.7,7.1-10.9c0-9.8-6.7-13-16.7-13h-24.6V52.3z M273.6,8.9h10.8
			c4.1,0,7.9,1.1,7.9,6c0,4.4-2.9,6.2-7,6.2h-11.7V8.9z"/>
	</g>
</g>
<g id="Grey_Inverse" class="st0">
	<g class="st6">
		<path d="M173.8,58.7H44c0,0-2.8,0-0.5-1.6l12.7-8.4c0,0,2.3-1.6,5.2-1.6H161c0,0,2.8,0,0.5-1.6l-38-25.2h0l-10.9-7.2
			c0,0-13.4-8.8-26.7,0L75,20.5L52.4,35.4c0,0,0,0-2.3,1.6L11.1,62.8C4.4,67.2,0,74.7,0,83.4C0,97,11,108,24.6,108h129.8
			c0,0,2.8,0,0.5,1.6l-12.7,8.4c0,0-2.3,1.6-5.2,1.6H37.4c0,0-2.8,0-0.5,1.6l35,23.2l13.9,9.2c0,0,13.4,8.8,26.7,0l11.4-7.5l21.2-14
			l36-23.8l1.7-1.1l4.5-3c0.1-0.1,0.2-0.2,0.4-0.2l0,0c0,0,0.1,0,0,0c0,0,0,0,2.3-1.6c4.1-2.8,8.3-10.3,8.3-18.7
			C198.4,69.8,187.4,58.7,173.8,58.7z M21.7,97.2c-4.6,0-7.3-3.1-7.6-7.9h5.5c0.1,1.4,0.5,3.2,2.2,3.2c1.3,0,1.7-1.1,1.7-2.2
			c0-1.4-1-2.3-2.6-3.8l-2.4-2.2c-2.6-2.3-4.1-4.5-4.1-7.6c0-3.8,2.5-7.1,7.4-7.1c3.4,0,6.7,1.8,7,7.9h-5.1
			c-0.2-1.7-0.6-3.2-2.1-3.2c-1.2,0-1.7,1-1.7,2c0,1.4,1.5,2.6,2.8,3.8l2.3,2.1c2.7,2.5,4.2,4.8,4.2,7.9
			C29.2,94,26.4,97.2,21.7,97.2z M50.8,96.9h-5.4L43,80.7h-0.2l-2.6,16.2h-5.5L30.2,70H36l2,15.1h0.1L40.4,70h5.5L48,85h0.1l2-15
			h5.1L50.8,96.9z M63.1,96.8h-5.9V70h5.9V96.8z M79.6,96.8H66.2V70h13.4v5H72v5.6h6v5h-6v6.2h7.7V96.8z M98.2,75h-5v21.8h-5.9V75
			h-5v-5h15.9V75z M114.3,96.8h-13.5V70h13.4v5h-7.6v5.6h6v5h-6v6.2h7.7V96.8z M130.7,96.8h-13.5V70h5.8v21.8h7.7V96.8z M139.3,97.2
			c-4.6,0-7.3-3.1-7.6-7.9h5.5c0.1,1.4,0.5,3.2,2.2,3.2c1.3,0,1.7-1.1,1.7-2.2c0-1.4-1-2.3-2.6-3.8l-2.4-2.2
			c-2.6-2.3-4.1-4.5-4.1-7.6c0-3.8,2.5-7.1,7.4-7.1c3.4,0,6.7,1.8,7,7.9h-5.1c-0.2-1.7-0.6-3.2-2.1-3.2c-1.2,0-1.7,1-1.7,2
			c0,1.4,1.5,2.6,2.8,3.8l2.3,2.1c2.7,2.5,4.2,4.8,4.2,7.9C146.8,94,144,97.2,139.3,97.2z M159.8,96.8l-2.9-11.5l-1.5,2.9v8.6h-5.9
			V70h5.9v11.5l4.8-11.5h5.7l-4.7,10.5l4.8,16.3H159.8z M178.6,86.4v10.3h-5.9V86.4L167,70h6.2l2.8,9.7l2.7-9.7h5.6L178.6,86.4z"/>
		<g>
			<path class="st7" d="M32.9,42.7v-38h64.3c1.1-0.1,2.1-0.1,3.1,0h65.3V54h4.7V4.7V0h-4.7H32.9h-4.7v4.7v41.1L32.9,42.7z"/>
			<path class="st7" d="M165.5,124v38h-64.3c-0.5,0-1,0-1.5,0c-0.5,0-1.1,0-1.6,0H32.9v-49.3h-4.7V162v4.7h4.7h132.7h4.7V162v-41.1
				L165.5,124z"/>
		</g>
	</g>
	<g class="st6">
		<path d="M411.1,166.7h10.8v-35h0.1l21.8,35h11.5v-52.3h-10.8v35.1h-0.1l-21.8-35.1h-11.4V166.7z M368.8,166.7h39.7V157h-28.2
			v-12.8h25.4v-8.9h-25.4v-11.2h27.6v-9.7h-39.2V166.7z M326.5,166.7h39.7V157H338v-12.8h25.4v-8.9H338v-11.2h27.6v-9.7h-39.2V166.7
			z M278,166.7h22.6c16,0,23.8-11.3,23.8-26.5c0-17.3-10.2-25.9-23.8-25.9H278V166.7z M289.5,124.1h8.2c11.4,0,15.1,6.7,15.1,17.3
			c0,11.6-6.4,15.7-13.1,15.7h-10.3V124.1z M262.1,166.7h11.5v-52.3h-11.5V166.7z"/>
		<path d="M354.5,109.5H366V87.9h21.9V79H366V66.9h25.3v-9.7h-36.8V109.5z M350.2,57.2h-11.5v32.6c0,7.8-2.6,11.4-10.9,11.4
			c-9.3,0-10.8-5.6-10.8-11.4V57.2h-11.5v32.6c0,14.3,8.1,21,22.3,21c14,0,22.4-6.9,22.4-21V57.2z M256.5,109.5h11.7l4.1-11.7h19.6
			l4,11.7h12l-19.6-52.3h-11.8L256.5,109.5z M282.1,70.1h0.1l6.6,19.2h-13.6L282.1,70.1z"/>
		<path d="M414.7,52.3h11.5V9.7h15.7V0H399v9.7h15.7V52.3z M397.4,0h-11.5v32.6c0,7.8-2.6,11.4-10.9,11.4c-9.3,0-10.8-5.6-10.8-11.4
			V0h-11.5v32.6c0,14.3,8.1,21,22.3,21c14,0,22.4-6.9,22.4-21V0z M304.2,52.3h11.7l4.1-11.7h19.6l4,11.7h12L335.9,0H324L304.2,52.3z
			 M329.8,12.9h0.1l6.6,19.2h-13.6L329.8,12.9z M273.6,29h12.5c5,0,8.3,2.1,8.3,7.5c0,5.4-4,6.9-8.5,6.9h-12.3V29z M262.1,52.3h25.4
			c9.5,0,18.5-4.5,18.5-15.2c0-6.5-3.2-11.4-9.6-13.3c4.6-2.3,7.1-5.7,7.1-10.9c0-9.8-6.7-13-16.7-13h-24.6V52.3z M273.6,8.9h10.8
			c4.1,0,7.9,1.1,7.9,6c0,4.4-2.9,6.2-7,6.2h-11.7V8.9z"/>
	</g>
</g>
<g id="_x31_c_Black" class="st0">
	<g class="st6">
		<path d="M173.8,58.7H44c0,0-2.8,0-0.5-1.6l12.7-8.4c0,0,2.3-1.6,5.2-1.6H161c0,0,2.8,0,0.5-1.6l-38-25.2h0l-10.9-7.2
			c0,0-13.4-8.8-26.7,0L75,20.5L52.4,35.4c0,0,0,0-2.3,1.6L11.1,62.8C4.4,67.2,0,74.7,0,83.4C0,97,11,108,24.6,108h129.8
			c0,0,2.8,0,0.5,1.6l-12.7,8.4c0,0-2.3,1.6-5.2,1.6H37.4c0,0-2.8,0-0.5,1.6l35,23.2l13.9,9.2c0,0,13.4,8.8,26.7,0l11.4-7.5l21.2-14
			l36-23.8l1.7-1.1l4.5-3c0.1-0.1,0.2-0.2,0.4-0.2l0,0c0,0,0.1,0,0,0c0,0,0,0,2.3-1.6c4.1-2.8,8.3-10.3,8.3-18.7
			C198.4,69.8,187.4,58.7,173.8,58.7z M21.7,97.2c-4.6,0-7.3-3.1-7.6-7.9h5.5c0.1,1.4,0.5,3.2,2.2,3.2c1.3,0,1.7-1.1,1.7-2.2
			c0-1.4-1-2.3-2.6-3.8l-2.4-2.2c-2.6-2.3-4.1-4.5-4.1-7.6c0-3.8,2.5-7.1,7.4-7.1c3.4,0,6.7,1.8,7,7.9h-5.1
			c-0.2-1.7-0.6-3.2-2.1-3.2c-1.2,0-1.7,1-1.7,2c0,1.4,1.5,2.6,2.8,3.8l2.3,2.1c2.7,2.5,4.2,4.8,4.2,7.9
			C29.2,94,26.4,97.2,21.7,97.2z M50.8,96.9h-5.4L43,80.7h-0.2l-2.6,16.2h-5.5L30.2,70H36l2,15.1h0.1L40.4,70h5.5L48,85h0.1l2-15
			h5.1L50.8,96.9z M63.1,96.8h-5.9V70h5.9V96.8z M79.6,96.8H66.2V70h13.4v5H72v5.6h6v5h-6v6.2h7.7V96.8z M98.2,75h-5v21.8h-5.9V75
			h-5v-5h15.9V75z M114.3,96.8h-13.5V70h13.4v5h-7.6v5.6h6v5h-6v6.2h7.7V96.8z M130.7,96.8h-13.5V70h5.8v21.8h7.7V96.8z M139.3,97.2
			c-4.6,0-7.3-3.1-7.6-7.9h5.5c0.1,1.4,0.5,3.2,2.2,3.2c1.3,0,1.7-1.1,1.7-2.2c0-1.4-1-2.3-2.6-3.8l-2.4-2.2
			c-2.6-2.3-4.1-4.5-4.1-7.6c0-3.8,2.5-7.1,7.4-7.1c3.4,0,6.7,1.8,7,7.9h-5.1c-0.2-1.7-0.6-3.2-2.1-3.2c-1.2,0-1.7,1-1.7,2
			c0,1.4,1.5,2.6,2.8,3.8l2.3,2.1c2.7,2.5,4.2,4.8,4.2,7.9C146.8,94,144,97.2,139.3,97.2z M159.8,96.8l-2.9-11.5l-1.5,2.9v8.6h-5.9
			V70h5.9v11.5l4.8-11.5h5.7l-4.7,10.5l4.8,16.3H159.8z M178.6,86.4v10.3h-5.9V86.4L167,70h6.2l2.8,9.7l2.7-9.7h5.6L178.6,86.4z"/>
		<g>
			<path d="M32.9,42.7v-38h64.3c1.1-0.1,2.1-0.1,3.1,0h65.3V54h4.7V4.7V0h-4.7H32.9h-4.7v4.7v41.1L32.9,42.7z"/>
			<path d="M165.5,124v38h-64.3c-0.5,0-1,0-1.5,0c-0.5,0-1.1,0-1.6,0H32.9v-49.3h-4.7V162v4.7h4.7h132.7h4.7V162v-41.1L165.5,124z"
				/>
		</g>
	</g>
	<g class="st6">
		<path d="M411.1,166.7h10.8v-35h0.1l21.8,35h11.5v-52.3h-10.8v35.1h-0.1l-21.8-35.1h-11.4V166.7z M368.8,166.7h39.7V157h-28.2
			v-12.8h25.4v-8.9h-25.4v-11.2h27.6v-9.7h-39.2V166.7z M326.5,166.7h39.7V157H338v-12.8h25.4v-8.9H338v-11.2h27.6v-9.7h-39.2V166.7
			z M278,166.7h22.6c16,0,23.8-11.3,23.8-26.5c0-17.3-10.2-25.9-23.8-25.9H278V166.7z M289.5,124.1h8.2c11.4,0,15.1,6.7,15.1,17.3
			c0,11.6-6.4,15.7-13.1,15.7h-10.3V124.1z M262.1,166.7h11.5v-52.3h-11.5V166.7z"/>
		<path d="M354.5,109.5H366V87.9h21.9V79H366V66.9h25.3v-9.7h-36.8V109.5z M350.2,57.2h-11.5v32.6c0,7.8-2.6,11.4-10.9,11.4
			c-9.3,0-10.8-5.6-10.8-11.4V57.2h-11.5v32.6c0,14.3,8.1,21,22.3,21c14,0,22.4-6.9,22.4-21V57.2z M256.5,109.5h11.7l4.1-11.7h19.6
			l4,11.7h12l-19.6-52.3h-11.8L256.5,109.5z M282.1,70.1h0.1l6.6,19.2h-13.6L282.1,70.1z"/>
		<path d="M414.7,52.3h11.5V9.7h15.7V0H399v9.7h15.7V52.3z M397.4,0h-11.5v32.6c0,7.8-2.6,11.4-10.9,11.4c-9.3,0-10.8-5.6-10.8-11.4
			V0h-11.5v32.6c0,14.3,8.1,21,22.3,21c14,0,22.4-6.9,22.4-21V0z M304.2,52.3h11.7l4.1-11.7h19.6l4,11.7h12L335.9,0H324L304.2,52.3z
			 M329.8,12.9h0.1l6.6,19.2h-13.6L329.8,12.9z M273.6,29h12.5c5,0,8.3,2.1,8.3,7.5c0,5.4-4,6.9-8.5,6.9h-12.3V29z M262.1,52.3h25.4
			c9.5,0,18.5-4.5,18.5-15.2c0-6.5-3.2-11.4-9.6-13.3c4.6-2.3,7.1-5.7,7.1-10.9c0-9.8-6.7-13-16.7-13h-24.6V52.3z M273.6,8.9h10.8
			c4.1,0,7.9,1.1,7.9,6c0,4.4-2.9,6.2-7,6.2h-11.7V8.9z"/>
	</g>
</g>
<g id="_x31_c_White" class="st0">
	<g class="st6">
		<path class="st5" d="M173.8,58.7H44c0,0-2.8,0-0.5-1.6l12.7-8.4c0,0,2.3-1.6,5.2-1.6H161c0,0,2.8,0,0.5-1.6l-38-25.2h0l-10.9-7.2
			c0,0-13.4-8.8-26.7,0L75,20.5L52.4,35.4c0,0,0,0-2.3,1.6L11.1,62.8C4.4,67.2,0,74.7,0,83.4C0,97,11,108,24.6,108h129.8
			c0,0,2.8,0,0.5,1.6l-12.7,8.4c0,0-2.3,1.6-5.2,1.6H37.4c0,0-2.8,0-0.5,1.6l35,23.2l13.9,9.2c0,0,13.4,8.8,26.7,0l11.4-7.5l21.2-14
			l36-23.8l1.7-1.1l4.5-3c0.1-0.1,0.2-0.2,0.4-0.2l0,0c0,0,0.1,0,0,0c0,0,0,0,2.3-1.6c4.1-2.8,8.3-10.3,8.3-18.7
			C198.4,69.8,187.4,58.7,173.8,58.7z M21.7,97.2c-4.6,0-7.3-3.1-7.6-7.9h5.5c0.1,1.4,0.5,3.2,2.2,3.2c1.3,0,1.7-1.1,1.7-2.2
			c0-1.4-1-2.3-2.6-3.8l-2.4-2.2c-2.6-2.3-4.1-4.5-4.1-7.6c0-3.8,2.5-7.1,7.4-7.1c3.4,0,6.7,1.8,7,7.9h-5.1
			c-0.2-1.7-0.6-3.2-2.1-3.2c-1.2,0-1.7,1-1.7,2c0,1.4,1.5,2.6,2.8,3.8l2.3,2.1c2.7,2.5,4.2,4.8,4.2,7.9
			C29.2,94,26.4,97.2,21.7,97.2z M50.8,96.9h-5.4L43,80.7h-0.2l-2.6,16.2h-5.5L30.2,70H36l2,15.1h0.1L40.4,70h5.5L48,85h0.1l2-15
			h5.1L50.8,96.9z M63.1,96.8h-5.9V70h5.9V96.8z M79.6,96.8H66.2V70h13.4v5H72v5.6h6v5h-6v6.2h7.7V96.8z M98.2,75h-5v21.8h-5.9V75
			h-5v-5h15.9V75z M114.3,96.8h-13.5V70h13.4v5h-7.6v5.6h6v5h-6v6.2h7.7V96.8z M130.7,96.8h-13.5V70h5.8v21.8h7.7V96.8z M139.3,97.2
			c-4.6,0-7.3-3.1-7.6-7.9h5.5c0.1,1.4,0.5,3.2,2.2,3.2c1.3,0,1.7-1.1,1.7-2.2c0-1.4-1-2.3-2.6-3.8l-2.4-2.2
			c-2.6-2.3-4.1-4.5-4.1-7.6c0-3.8,2.5-7.1,7.4-7.1c3.4,0,6.7,1.8,7,7.9h-5.1c-0.2-1.7-0.6-3.2-2.1-3.2c-1.2,0-1.7,1-1.7,2
			c0,1.4,1.5,2.6,2.8,3.8l2.3,2.1c2.7,2.5,4.2,4.8,4.2,7.9C146.8,94,144,97.2,139.3,97.2z M159.8,96.8l-2.9-11.5l-1.5,2.9v8.6h-5.9
			V70h5.9v11.5l4.8-11.5h5.7l-4.7,10.5l4.8,16.3H159.8z M178.6,86.4v10.3h-5.9V86.4L167,70h6.2l2.8,9.7l2.7-9.7h5.6L178.6,86.4z"/>
		<g>
			<path class="st5" d="M32.9,42.7v-38h64.3c1.1-0.1,2.1-0.1,3.1,0h65.3V54h4.7V4.7V0h-4.7H32.9h-4.7v4.7v41.1L32.9,42.7z"/>
			<path class="st5" d="M165.5,124v38h-64.3c-0.5,0-1,0-1.5,0c-0.5,0-1.1,0-1.6,0H32.9v-49.3h-4.7V162v4.7h4.7h132.7h4.7V162v-41.1
				L165.5,124z"/>
		</g>
	</g>
	<g class="st6">
		<path class="st5" d="M411.1,166.7h10.8v-35h0.1l21.8,35h11.5v-52.3h-10.8v35.1h-0.1l-21.8-35.1h-11.4V166.7z M368.8,166.7h39.7
			V157h-28.2v-12.8h25.4v-8.9h-25.4v-11.2h27.6v-9.7h-39.2V166.7z M326.5,166.7h39.7V157H338v-12.8h25.4v-8.9H338v-11.2h27.6v-9.7
			h-39.2V166.7z M278,166.7h22.6c16,0,23.8-11.3,23.8-26.5c0-17.3-10.2-25.9-23.8-25.9H278V166.7z M289.5,124.1h8.2
			c11.4,0,15.1,6.7,15.1,17.3c0,11.6-6.4,15.7-13.1,15.7h-10.3V124.1z M262.1,166.7h11.5v-52.3h-11.5V166.7z"/>
		<path class="st5" d="M354.5,109.5H366V87.9h21.9V79H366V66.9h25.3v-9.7h-36.8V109.5z M350.2,57.2h-11.5v32.6
			c0,7.8-2.6,11.4-10.9,11.4c-9.3,0-10.8-5.6-10.8-11.4V57.2h-11.5v32.6c0,14.3,8.1,21,22.3,21c14,0,22.4-6.9,22.4-21V57.2z
			 M256.5,109.5h11.7l4.1-11.7h19.6l4,11.7h12l-19.6-52.3h-11.8L256.5,109.5z M282.1,70.1h0.1l6.6,19.2h-13.6L282.1,70.1z"/>
		<path class="st5" d="M414.7,52.3h11.5V9.7h15.7V0H399v9.7h15.7V52.3z M397.4,0h-11.5v32.6c0,7.8-2.6,11.4-10.9,11.4
			c-9.3,0-10.8-5.6-10.8-11.4V0h-11.5v32.6c0,14.3,8.1,21,22.3,21c14,0,22.4-6.9,22.4-21V0z M304.2,52.3h11.7l4.1-11.7h19.6l4,11.7
			h12L335.9,0H324L304.2,52.3z M329.8,12.9h0.1l6.6,19.2h-13.6L329.8,12.9z M273.6,29h12.5c5,0,8.3,2.1,8.3,7.5c0,5.4-4,6.9-8.5,6.9
			h-12.3V29z M262.1,52.3h25.4c9.5,0,18.5-4.5,18.5-15.2c0-6.5-3.2-11.4-9.6-13.3c4.6-2.3,7.1-5.7,7.1-10.9c0-9.8-6.7-13-16.7-13
			h-24.6V52.3z M273.6,8.9h10.8c4.1,0,7.9,1.1,7.9,6c0,4.4-2.9,6.2-7,6.2h-11.7V8.9z"/>
	</g>
</g>
<g id="_x31_c_Black_Inverse" class="st0">
	<g class="st6">
		<g>
			<path d="M23.8,77.4h5.1c-0.2-6.1-3.5-7.9-7-7.9c-5,0-7.4,3.3-7.4,7.1c0,3,1.5,5.3,4.1,7.6l2.4,2.2c1.5,1.4,2.6,2.4,2.6,3.8
				c0,1.1-0.4,2.2-1.7,2.2c-1.7,0-2.1-1.8-2.2-3.2h-5.5c0.2,4.8,3,7.9,7.6,7.9c4.7,0,7.5-3.2,7.5-7.2c0-3.1-1.5-5.4-4.2-7.9L22.8,80
				c-1.2-1.2-2.8-2.4-2.8-3.8c0-1,0.5-2,1.7-2C23.2,74.2,23.6,75.7,23.8,77.4"/>
			<path d="M141.4,77.4h5.1c-0.2-6.1-3.5-7.9-7-7.9c-5,0-7.4,3.3-7.4,7.1c0,3,1.5,5.3,4.1,7.6l2.4,2.2c1.5,1.4,2.6,2.4,2.6,3.8
				c0,1.1-0.4,2.2-1.7,2.2c-1.7,0-2.1-1.8-2.2-3.2h-5.5c0.2,4.8,3,7.9,7.6,7.9c4.7,0,7.5-3.2,7.5-7.2c0-3.1-1.5-5.4-4.2-7.9
				l-2.3-2.1c-1.2-1.2-2.8-2.4-2.8-3.8c0-1,0.5-2,1.7-2C140.8,74.2,141.2,75.7,141.4,77.4"/>
			<polygon points="117.3,96.8 130.7,96.8 130.7,91.8 123.1,91.8 123.1,70 117.3,70 			"/>
			<polygon points="100.8,96.8 114.3,96.8 114.3,91.8 106.6,91.8 106.6,85.6 112.7,85.6 112.7,80.6 106.6,80.6 106.6,75 114.2,75 
				114.2,70 100.8,70 			"/>
			<polygon points="87.3,96.8 93.2,96.8 93.2,75 98.2,75 98.2,70 82.3,70 82.3,75 87.3,75 			"/>
			<polygon points="66.2,96.8 79.6,96.8 79.6,91.8 72,91.8 72,85.6 78,85.6 78,80.6 72,80.6 72,75 79.6,75 79.6,70 66.2,70 			"/>
			<rect x="57.3" y="70" width="5.9" height="26.8"/>
			<polygon points="34.7,96.9 40.2,96.9 42.8,80.7 43,80.7 45.4,96.9 50.8,96.9 55.3,70 50.1,70 48.1,85 48,85 45.9,70 40.4,70 
				38.1,85.1 38,85.1 36,70 30.2,70 			"/>
			<polygon points="172.7,96.8 178.6,96.8 178.6,86.4 184.3,70 178.7,70 176,79.6 173.2,70 167,70 172.7,86.4 			"/>
			<polygon points="149.6,96.8 155.4,96.8 155.4,88.2 156.9,85.3 159.8,96.8 166,96.8 161.2,80.5 165.9,70 160.2,70 155.4,81.5 
				155.4,70 149.6,70 			"/>
		</g>
		<path d="M203.1,83.4c0-16.2-13.2-29.3-29.3-29.3h-8.2v-3.7V43V4.7h-65.3c-1-0.1-2-0.1-3.1,0H32.9v38L8.5,58.8
			C0.2,64.3-4.7,73.5-4.7,83.4c0,16.2,13.2,29.3,29.3,29.3h8.2v3.7v7.4V162h65.3c0.5,0,1.1,0,1.6,0c0.5,0,1,0,1.5,0h64.3v-38
			l18.2-12.1l6.3-4.2c0.1,0,0.1-0.1,0.2-0.1l4-2.7l-0.1-0.2C198.7,100.8,203.1,92.9,203.1,83.4z M190.1,102
			c-2.3,1.6-2.3,1.6-2.3,1.6c0,0,0,0,0,0l0,0c-0.1,0.1-0.2,0.2-0.4,0.2l-4.5,3l-1.7,1.1l-36,23.8l-21.2,14l-11.4,7.5
			c-13.4,8.8-26.7,0-26.7,0l-13.9-9.2l-35-23.2c-2.3-1.6,0.5-1.6,0.5-1.6h99.7c2.8,0,5.2-1.6,5.2-1.6l12.7-8.4
			c2.3-1.6-0.5-1.6-0.5-1.6H24.6C11,108,0,97,0,83.4c0-8.6,4.4-16.2,11.1-20.6L50.1,37c2.3-1.6,2.3-1.6,2.3-1.6L75,20.5l10.9-7.2
			c13.4-8.8,26.7,0,26.7,0l10.9,7.2h0l38,25.2c2.3,1.6-0.5,1.6-0.5,1.6H61.3c-2.8,0-5.2,1.6-5.2,1.6l-12.7,8.4
			c-2.3,1.6,0.5,1.6,0.5,1.6h129.8c13.6,0,24.6,11,24.6,24.6C198.4,91.8,194.2,99.2,190.1,102z"/>
	</g>
	<g class="st6">
		<path d="M411.1,166.7h10.8v-35h0.1l21.8,35h11.5v-52.3h-10.8v35.1h-0.1l-21.8-35.1h-11.4V166.7z M368.8,166.7h39.7V157h-28.2
			v-12.8h25.4v-8.9h-25.4v-11.2h27.6v-9.7h-39.2V166.7z M326.5,166.7h39.7V157H338v-12.8h25.4v-8.9H338v-11.2h27.6v-9.7h-39.2V166.7
			z M278,166.7h22.6c16,0,23.8-11.3,23.8-26.5c0-17.3-10.2-25.9-23.8-25.9H278V166.7z M289.5,124.1h8.2c11.4,0,15.1,6.7,15.1,17.3
			c0,11.6-6.4,15.7-13.1,15.7h-10.3V124.1z M262.1,166.7h11.5v-52.3h-11.5V166.7z"/>
		<path d="M354.5,109.5H366V87.9h21.9V79H366V66.9h25.3v-9.7h-36.8V109.5z M350.2,57.2h-11.5v32.6c0,7.8-2.6,11.4-10.9,11.4
			c-9.3,0-10.8-5.6-10.8-11.4V57.2h-11.5v32.6c0,14.3,8.1,21,22.3,21c14,0,22.4-6.9,22.4-21V57.2z M256.5,109.5h11.7l4.1-11.7h19.6
			l4,11.7h12l-19.6-52.3h-11.8L256.5,109.5z M282.1,70.1h0.1l6.6,19.2h-13.6L282.1,70.1z"/>
		<path d="M414.7,52.3h11.5V9.7h15.7V0H399v9.7h15.7V52.3z M397.4,0h-11.5v32.6c0,7.8-2.6,11.4-10.9,11.4c-9.3,0-10.8-5.6-10.8-11.4
			V0h-11.5v32.6c0,14.3,8.1,21,22.3,21c14,0,22.4-6.9,22.4-21V0z M304.2,52.3h11.7l4.1-11.7h19.6l4,11.7h12L335.9,0H324L304.2,52.3z
			 M329.8,12.9h0.1l6.6,19.2h-13.6L329.8,12.9z M273.6,29h12.5c5,0,8.3,2.1,8.3,7.5c0,5.4-4,6.9-8.5,6.9h-12.3V29z M262.1,52.3h25.4
			c9.5,0,18.5-4.5,18.5-15.2c0-6.5-3.2-11.4-9.6-13.3c4.6-2.3,7.1-5.7,7.1-10.9c0-9.8-6.7-13-16.7-13h-24.6V52.3z M273.6,8.9h10.8
			c4.1,0,7.9,1.1,7.9,6c0,4.4-2.9,6.2-7,6.2h-11.7V8.9z"/>
	</g>
</g>
<g id="_x31_c_White_Inverse" class="st0">
	<g class="st6">
		<g>
			<path class="st5" d="M203.1,83.4c0-16.2-13.2-29.3-29.3-29.3h-8.2v-3.7V43V4.7h-65.3c-1-0.1-2-0.1-3.1,0H32.9v38L8.5,58.8
				C0.2,64.3-4.7,73.5-4.7,83.4c0,16.2,13.2,29.3,29.3,29.3h8.2v3.7v7.4V162h65.3c0.5,0,1.1,0,1.6,0c0.5,0,1,0,1.5,0h64.3v-38
				l18.2-12.1l6.3-4.2c0.1,0,0.1-0.1,0.2-0.1l4-2.7l-0.1-0.2C198.7,100.8,203.1,92.9,203.1,83.4z M190.1,102
				c-2.3,1.6-2.3,1.6-2.3,1.6c0,0,0,0,0,0l0,0c-0.1,0.1-0.2,0.2-0.4,0.2l-4.5,3l-1.7,1.1l-36,23.8l-21.2,14l-11.4,7.5
				c-13.4,8.8-26.7,0-26.7,0l-13.9-9.2l-35-23.2c-2.3-1.6,0.5-1.6,0.5-1.6h99.7c2.8,0,5.2-1.6,5.2-1.6l12.7-8.4
				c2.3-1.6-0.5-1.6-0.5-1.6H24.6C11,108,0,97,0,83.4c0-8.6,4.4-16.2,11.1-20.6L50.1,37c2.3-1.6,2.3-1.6,2.3-1.6L75,20.5l10.9-7.2
				c13.4-8.8,26.7,0,26.7,0l10.9,7.2h0l38,25.2c2.3,1.6-0.5,1.6-0.5,1.6H61.3c-2.8,0-5.2,1.6-5.2,1.6l-12.7,8.4
				c-2.3,1.6,0.5,1.6,0.5,1.6h129.8c13.6,0,24.6,11,24.6,24.6C198.4,91.8,194.2,99.2,190.1,102z"/>
		</g>
		<g>
			<path class="st5" d="M23.8,77.4h5.1c-0.2-6.1-3.5-7.9-7-7.9c-5,0-7.4,3.3-7.4,7.1c0,3,1.5,5.3,4.1,7.6l2.4,2.2
				c1.5,1.4,2.6,2.4,2.6,3.8c0,1.1-0.4,2.2-1.7,2.2c-1.7,0-2.1-1.8-2.2-3.2h-5.5c0.2,4.8,3,7.9,7.6,7.9c4.7,0,7.5-3.2,7.5-7.2
				c0-3.1-1.5-5.4-4.2-7.9L22.8,80c-1.2-1.2-2.8-2.4-2.8-3.8c0-1,0.5-2,1.7-2C23.2,74.2,23.6,75.7,23.8,77.4"/>
			<path class="st5" d="M141.4,77.4h5.1c-0.2-6.1-3.5-7.9-7-7.9c-5,0-7.4,3.3-7.4,7.1c0,3,1.5,5.3,4.1,7.6l2.4,2.2
				c1.5,1.4,2.6,2.4,2.6,3.8c0,1.1-0.4,2.2-1.7,2.2c-1.7,0-2.1-1.8-2.2-3.2h-5.5c0.2,4.8,3,7.9,7.6,7.9c4.7,0,7.5-3.2,7.5-7.2
				c0-3.1-1.5-5.4-4.2-7.9l-2.3-2.1c-1.2-1.2-2.8-2.4-2.8-3.8c0-1,0.5-2,1.7-2C140.8,74.2,141.2,75.7,141.4,77.4"/>
			<polygon class="st5" points="117.3,96.8 130.7,96.8 130.7,91.8 123.1,91.8 123.1,70 117.3,70 			"/>
			<polygon class="st5" points="100.8,96.8 114.3,96.8 114.3,91.8 106.6,91.8 106.6,85.6 112.7,85.6 112.7,80.6 106.6,80.6 
				106.6,75 114.2,75 114.2,70 100.8,70 			"/>
			<polygon class="st5" points="87.3,96.8 93.2,96.8 93.2,75 98.2,75 98.2,70 82.3,70 82.3,75 87.3,75 			"/>
			<polygon class="st5" points="66.2,96.8 79.6,96.8 79.6,91.8 72,91.8 72,85.6 78,85.6 78,80.6 72,80.6 72,75 79.6,75 79.6,70 
				66.2,70 			"/>
			<rect x="57.3" y="70" class="st5" width="5.9" height="26.8"/>
			<polygon class="st5" points="34.7,96.9 40.2,96.9 42.8,80.7 43,80.7 45.4,96.9 50.8,96.9 55.3,70 50.1,70 48.1,85 48,85 45.9,70 
				40.4,70 38.1,85.1 38,85.1 36,70 30.2,70 			"/>
			<polygon class="st5" points="172.7,96.8 178.6,96.8 178.6,86.4 184.3,70 178.7,70 176,79.6 173.2,70 167,70 172.7,86.4 			"/>
			<polygon class="st5" points="149.6,96.8 155.4,96.8 155.4,88.2 156.9,85.3 159.8,96.8 166,96.8 161.2,80.5 165.9,70 160.2,70 
				155.4,81.5 155.4,70 149.6,70 			"/>
		</g>
	</g>
	<g class="st6">
		<path class="st5" d="M411.1,166.7h10.8v-35h0.1l21.8,35h11.5v-52.3h-10.8v35.1h-0.1l-21.8-35.1h-11.4V166.7z M368.8,166.7h39.7
			V157h-28.2v-12.8h25.4v-8.9h-25.4v-11.2h27.6v-9.7h-39.2V166.7z M326.5,166.7h39.7V157H338v-12.8h25.4v-8.9H338v-11.2h27.6v-9.7
			h-39.2V166.7z M278,166.7h22.6c16,0,23.8-11.3,23.8-26.5c0-17.3-10.2-25.9-23.8-25.9H278V166.7z M289.5,124.1h8.2
			c11.4,0,15.1,6.7,15.1,17.3c0,11.6-6.4,15.7-13.1,15.7h-10.3V124.1z M262.1,166.7h11.5v-52.3h-11.5V166.7z"/>
		<path class="st5" d="M354.5,109.5H366V87.9h21.9V79H366V66.9h25.3v-9.7h-36.8V109.5z M350.2,57.2h-11.5v32.6
			c0,7.8-2.6,11.4-10.9,11.4c-9.3,0-10.8-5.6-10.8-11.4V57.2h-11.5v32.6c0,14.3,8.1,21,22.3,21c14,0,22.4-6.9,22.4-21V57.2z
			 M256.5,109.5h11.7l4.1-11.7h19.6l4,11.7h12l-19.6-52.3h-11.8L256.5,109.5z M282.1,70.1h0.1l6.6,19.2h-13.6L282.1,70.1z"/>
		<path class="st5" d="M414.7,52.3h11.5V9.7h15.7V0H399v9.7h15.7V52.3z M397.4,0h-11.5v32.6c0,7.8-2.6,11.4-10.9,11.4
			c-9.3,0-10.8-5.6-10.8-11.4V0h-11.5v32.6c0,14.3,8.1,21,22.3,21c14,0,22.4-6.9,22.4-21V0z M304.2,52.3h11.7l4.1-11.7h19.6l4,11.7
			h12L335.9,0H324L304.2,52.3z M329.8,12.9h0.1l6.6,19.2h-13.6L329.8,12.9z M273.6,29h12.5c5,0,8.3,2.1,8.3,7.5c0,5.4-4,6.9-8.5,6.9
			h-12.3V29z M262.1,52.3h25.4c9.5,0,18.5-4.5,18.5-15.2c0-6.5-3.2-11.4-9.6-13.3c4.6-2.3,7.1-5.7,7.1-10.9c0-9.8-6.7-13-16.7-13
			h-24.6V52.3z M273.6,8.9h10.8c4.1,0,7.9,1.1,7.9,6c0,4.4-2.9,6.2-7,6.2h-11.7V8.9z"/>
	</g>
</g>
<g id="_x31_c_Orange_Inverse" class="st0">
	<g class="st6">
		<g>
			<path class="st5" d="M203.1,83.4c0-16.2-13.2-29.3-29.3-29.3h-8.2v-3.7V43V4.7h-65.3c-1-0.1-2-0.1-3.1,0H32.9v38L8.5,58.8
				C0.2,64.3-4.7,73.5-4.7,83.4c0,16.2,13.2,29.3,29.3,29.3h8.2v3.7v7.4V162h65.3c0.5,0,1.1,0,1.6,0c0.5,0,1,0,1.5,0h64.3v-38
				l18.2-12.1l6.3-4.2c0.1,0,0.1-0.1,0.2-0.1l4-2.7l-0.1-0.2C198.7,100.8,203.1,92.9,203.1,83.4z M190.1,102
				c-2.3,1.6-2.3,1.6-2.3,1.6c0,0,0,0,0,0l0,0c-0.1,0.1-0.2,0.2-0.4,0.2l-4.5,3l-1.7,1.1l-36,23.8l-21.2,14l-11.4,7.5
				c-13.4,8.8-26.7,0-26.7,0l-13.9-9.2l-35-23.2c-2.3-1.6,0.5-1.6,0.5-1.6h99.7c2.8,0,5.2-1.6,5.2-1.6l12.7-8.4
				c2.3-1.6-0.5-1.6-0.5-1.6H24.6C11,108,0,97,0,83.4c0-8.6,4.4-16.2,11.1-20.6L50.1,37c2.3-1.6,2.3-1.6,2.3-1.6L75,20.5l10.9-7.2
				c13.4-8.8,26.7,0,26.7,0l10.9,7.2h0l38,25.2c2.3,1.6-0.5,1.6-0.5,1.6H61.3c-2.8,0-5.2,1.6-5.2,1.6l-12.7,8.4
				c-2.3,1.6,0.5,1.6,0.5,1.6h129.8c13.6,0,24.6,11,24.6,24.6C198.4,91.8,194.2,99.2,190.1,102z"/>
		</g>
		<g>
			<path class="st5" d="M23.8,77.4h5.1c-0.2-6.1-3.5-7.9-7-7.9c-5,0-7.4,3.3-7.4,7.1c0,3,1.5,5.3,4.1,7.6l2.4,2.2
				c1.5,1.4,2.6,2.4,2.6,3.8c0,1.1-0.4,2.2-1.7,2.2c-1.7,0-2.1-1.8-2.2-3.2h-5.5c0.2,4.8,3,7.9,7.6,7.9c4.7,0,7.5-3.2,7.5-7.2
				c0-3.1-1.5-5.4-4.2-7.9L22.8,80c-1.2-1.2-2.8-2.4-2.8-3.8c0-1,0.5-2,1.7-2C23.2,74.2,23.6,75.7,23.8,77.4"/>
			<path class="st5" d="M141.4,77.4h5.1c-0.2-6.1-3.5-7.9-7-7.9c-5,0-7.4,3.3-7.4,7.1c0,3,1.5,5.3,4.1,7.6l2.4,2.2
				c1.5,1.4,2.6,2.4,2.6,3.8c0,1.1-0.4,2.2-1.7,2.2c-1.7,0-2.1-1.8-2.2-3.2h-5.5c0.2,4.8,3,7.9,7.6,7.9c4.7,0,7.5-3.2,7.5-7.2
				c0-3.1-1.5-5.4-4.2-7.9l-2.3-2.1c-1.2-1.2-2.8-2.4-2.8-3.8c0-1,0.5-2,1.7-2C140.8,74.2,141.2,75.7,141.4,77.4"/>
			<polygon class="st5" points="117.3,96.8 130.7,96.8 130.7,91.8 123.1,91.8 123.1,70 117.3,70 			"/>
			<polygon class="st5" points="100.8,96.8 114.3,96.8 114.3,91.8 106.6,91.8 106.6,85.6 112.7,85.6 112.7,80.6 106.6,80.6 
				106.6,75 114.2,75 114.2,70 100.8,70 			"/>
			<polygon class="st5" points="87.3,96.8 93.2,96.8 93.2,75 98.2,75 98.2,70 82.3,70 82.3,75 87.3,75 			"/>
			<polygon class="st5" points="66.2,96.8 79.6,96.8 79.6,91.8 72,91.8 72,85.6 78,85.6 78,80.6 72,80.6 72,75 79.6,75 79.6,70 
				66.2,70 			"/>
			<rect x="57.3" y="70" class="st5" width="5.9" height="26.8"/>
			<polygon class="st5" points="34.7,96.9 40.2,96.9 42.8,80.7 43,80.7 45.4,96.9 50.8,96.9 55.3,70 50.1,70 48.1,85 48,85 45.9,70 
				40.4,70 38.1,85.1 38,85.1 36,70 30.2,70 			"/>
			<polygon class="st5" points="172.7,96.8 178.6,96.8 178.6,86.4 184.3,70 178.7,70 176,79.6 173.2,70 167,70 172.7,86.4 			"/>
			<polygon class="st5" points="149.6,96.8 155.4,96.8 155.4,88.2 156.9,85.3 159.8,96.8 166,96.8 161.2,80.5 165.9,70 160.2,70 
				155.4,81.5 155.4,70 149.6,70 			"/>
		</g>
	</g>
	<g class="st6">
		<g>
			<path class="st3" d="M203.1,83.4c0-16.2-13.2-29.3-29.3-29.3h-8.2v-3.7V43V4.7h-65.3c-1-0.1-2-0.1-3.1,0H32.9v38L8.5,58.8
				C0.2,64.3-4.7,73.5-4.7,83.4c0,16.2,13.2,29.3,29.3,29.3h8.2v3.7v7.4V162h65.3c0.5,0,1.1,0,1.6,0c0.5,0,1,0,1.5,0h64.3v-38
				l18.2-12.1l6.3-4.2c0.1,0,0.1-0.1,0.2-0.1l4-2.7l-0.1-0.2C198.7,100.8,203.1,92.9,203.1,83.4z M190.1,102
				c-2.3,1.6-2.3,1.6-2.3,1.6c0,0,0,0,0,0l0,0c-0.1,0.1-0.2,0.2-0.4,0.2l-4.5,3l-1.7,1.1l-36,23.8l-21.2,14l-11.4,7.5
				c-13.4,8.8-26.7,0-26.7,0l-13.9-9.2l-35-23.2c-2.3-1.6,0.5-1.6,0.5-1.6h99.7c2.8,0,5.2-1.6,5.2-1.6l12.7-8.4
				c2.3-1.6-0.5-1.6-0.5-1.6H24.6C11,108,0,97,0,83.4c0-8.6,4.4-16.2,11.1-20.6L50.1,37c2.3-1.6,2.3-1.6,2.3-1.6L75,20.5l10.9-7.2
				c13.4-8.8,26.7,0,26.7,0l10.9,7.2h0l38,25.2c2.3,1.6-0.5,1.6-0.5,1.6H61.3c-2.8,0-5.2,1.6-5.2,1.6l-12.7,8.4
				c-2.3,1.6,0.5,1.6,0.5,1.6h129.8c13.6,0,24.6,11,24.6,24.6C198.4,91.8,194.2,99.2,190.1,102z"/>
		</g>
		<g>
			<path class="st3" d="M23.8,77.4h5.1c-0.2-6.1-3.5-7.9-7-7.9c-5,0-7.4,3.3-7.4,7.1c0,3,1.5,5.3,4.1,7.6l2.4,2.2
				c1.5,1.4,2.6,2.4,2.6,3.8c0,1.1-0.4,2.2-1.7,2.2c-1.7,0-2.1-1.8-2.2-3.2h-5.5c0.2,4.8,3,7.9,7.6,7.9c4.7,0,7.5-3.2,7.5-7.2
				c0-3.1-1.5-5.4-4.2-7.9L22.8,80c-1.2-1.2-2.8-2.4-2.8-3.8c0-1,0.5-2,1.7-2C23.2,74.2,23.6,75.7,23.8,77.4"/>
			<path class="st3" d="M141.4,77.4h5.1c-0.2-6.1-3.5-7.9-7-7.9c-5,0-7.4,3.3-7.4,7.1c0,3,1.5,5.3,4.1,7.6l2.4,2.2
				c1.5,1.4,2.6,2.4,2.6,3.8c0,1.1-0.4,2.2-1.7,2.2c-1.7,0-2.1-1.8-2.2-3.2h-5.5c0.2,4.8,3,7.9,7.6,7.9c4.7,0,7.5-3.2,7.5-7.2
				c0-3.1-1.5-5.4-4.2-7.9l-2.3-2.1c-1.2-1.2-2.8-2.4-2.8-3.8c0-1,0.5-2,1.7-2C140.8,74.2,141.2,75.7,141.4,77.4"/>
			<polygon class="st3" points="117.3,96.8 130.7,96.8 130.7,91.8 123.1,91.8 123.1,70 117.3,70 			"/>
			<polygon class="st3" points="100.8,96.8 114.3,96.8 114.3,91.8 106.6,91.8 106.6,85.6 112.7,85.6 112.7,80.6 106.6,80.6 
				106.6,75 114.2,75 114.2,70 100.8,70 			"/>
			<polygon class="st3" points="87.3,96.8 93.2,96.8 93.2,75 98.2,75 98.2,70 82.3,70 82.3,75 87.3,75 			"/>
			<polygon class="st3" points="66.2,96.8 79.6,96.8 79.6,91.8 72,91.8 72,85.6 78,85.6 78,80.6 72,80.6 72,75 79.6,75 79.6,70 
				66.2,70 			"/>
			<rect x="57.3" y="70" class="st3" width="5.9" height="26.8"/>
			<polygon class="st3" points="34.7,96.9 40.2,96.9 42.8,80.7 43,80.7 45.4,96.9 50.8,96.9 55.3,70 50.1,70 48.1,85 48,85 45.9,70 
				40.4,70 38.1,85.1 38,85.1 36,70 30.2,70 			"/>
			<polygon class="st3" points="172.7,96.8 178.6,96.8 178.6,86.4 184.3,70 178.7,70 176,79.6 173.2,70 167,70 172.7,86.4 			"/>
			<polygon class="st3" points="149.6,96.8 155.4,96.8 155.4,88.2 156.9,85.3 159.8,96.8 166,96.8 161.2,80.5 165.9,70 160.2,70 
				155.4,81.5 155.4,70 149.6,70 			"/>
		</g>
	</g>
	<g class="st6">
		<path class="st3" d="M411.1,166.7h10.8v-35h0.1l21.8,35h11.5v-52.3h-10.8v35.1h-0.1l-21.8-35.1h-11.4V166.7z M368.8,166.7h39.7
			V157h-28.2v-12.8h25.4v-8.9h-25.4v-11.2h27.6v-9.7h-39.2V166.7z M326.5,166.7h39.7V157H338v-12.8h25.4v-8.9H338v-11.2h27.6v-9.7
			h-39.2V166.7z M278,166.7h22.6c16,0,23.8-11.3,23.8-26.5c0-17.3-10.2-25.9-23.8-25.9H278V166.7z M289.5,124.1h8.2
			c11.4,0,15.1,6.7,15.1,17.3c0,11.6-6.4,15.7-13.1,15.7h-10.3V124.1z M262.1,166.7h11.5v-52.3h-11.5V166.7z"/>
		<path class="st3" d="M354.5,109.5H366V87.9h21.9V79H366V66.9h25.3v-9.7h-36.8V109.5z M350.2,57.2h-11.5v32.6
			c0,7.8-2.6,11.4-10.9,11.4c-9.3,0-10.8-5.6-10.8-11.4V57.2h-11.5v32.6c0,14.3,8.1,21,22.3,21c14,0,22.4-6.9,22.4-21V57.2z
			 M256.5,109.5h11.7l4.1-11.7h19.6l4,11.7h12l-19.6-52.3h-11.8L256.5,109.5z M282.1,70.1h0.1l6.6,19.2h-13.6L282.1,70.1z"/>
		<path class="st3" d="M414.7,52.3h11.5V9.7h15.7V0H399v9.7h15.7V52.3z M397.4,0h-11.5v32.6c0,7.8-2.6,11.4-10.9,11.4
			c-9.3,0-10.8-5.6-10.8-11.4V0h-11.5v32.6c0,14.3,8.1,21,22.3,21c14,0,22.4-6.9,22.4-21V0z M304.2,52.3h11.7l4.1-11.7h19.6l4,11.7
			h12L335.9,0H324L304.2,52.3z M329.8,12.9h0.1l6.6,19.2h-13.6L329.8,12.9z M273.6,29h12.5c5,0,8.3,2.1,8.3,7.5c0,5.4-4,6.9-8.5,6.9
			h-12.3V29z M262.1,52.3h25.4c9.5,0,18.5-4.5,18.5-15.2c0-6.5-3.2-11.4-9.6-13.3c4.6-2.3,7.1-5.7,7.1-10.9c0-9.8-6.7-13-16.7-13
			h-24.6V52.3z M273.6,8.9h10.8c4.1,0,7.9,1.1,7.9,6c0,4.4-2.9,6.2-7,6.2h-11.7V8.9z"/>
	</g>
</g>
<g id="_x31_c_Blue" class="st0">
	<g class="st6">
		<path class="st4" d="M173.8,58.7H44c0,0-2.8,0-0.5-1.6l12.7-8.4c0,0,2.3-1.6,5.2-1.6H161c0,0,2.8,0,0.5-1.6l-38-25.2h0l-10.9-7.2
			c0,0-13.4-8.8-26.7,0L75,20.5L52.4,35.4c0,0,0,0-2.3,1.6L11.1,62.8C4.4,67.2,0,74.7,0,83.4C0,97,11,108,24.6,108h129.8
			c0,0,2.8,0,0.5,1.6l-12.7,8.4c0,0-2.3,1.6-5.2,1.6H37.4c0,0-2.8,0-0.5,1.6l35,23.2l13.9,9.2c0,0,13.4,8.8,26.7,0l11.4-7.5l21.2-14
			l36-23.8l1.7-1.1l4.5-3c0.1-0.1,0.2-0.2,0.4-0.2l0,0c0,0,0.1,0,0,0c0,0,0,0,2.3-1.6c4.1-2.8,8.3-10.3,8.3-18.7
			C198.4,69.8,187.4,58.7,173.8,58.7z M21.7,97.2c-4.6,0-7.3-3.1-7.6-7.9h5.5c0.1,1.4,0.5,3.2,2.2,3.2c1.3,0,1.7-1.1,1.7-2.2
			c0-1.4-1-2.3-2.6-3.8l-2.4-2.2c-2.6-2.3-4.1-4.5-4.1-7.6c0-3.8,2.5-7.1,7.4-7.1c3.4,0,6.7,1.8,7,7.9h-5.1
			c-0.2-1.7-0.6-3.2-2.1-3.2c-1.2,0-1.7,1-1.7,2c0,1.4,1.5,2.6,2.8,3.8l2.3,2.1c2.7,2.5,4.2,4.8,4.2,7.9
			C29.2,94,26.4,97.2,21.7,97.2z M50.8,96.9h-5.4L43,80.7h-0.2l-2.6,16.2h-5.5L30.2,70H36l2,15.1h0.1L40.4,70h5.5L48,85h0.1l2-15
			h5.1L50.8,96.9z M63.1,96.8h-5.9V70h5.9V96.8z M79.6,96.8H66.2V70h13.4v5H72v5.6h6v5h-6v6.2h7.7V96.8z M98.2,75h-5v21.8h-5.9V75
			h-5v-5h15.9V75z M114.3,96.8h-13.5V70h13.4v5h-7.6v5.6h6v5h-6v6.2h7.7V96.8z M130.7,96.8h-13.5V70h5.8v21.8h7.7V96.8z M139.3,97.2
			c-4.6,0-7.3-3.1-7.6-7.9h5.5c0.1,1.4,0.5,3.2,2.2,3.2c1.3,0,1.7-1.1,1.7-2.2c0-1.4-1-2.3-2.6-3.8l-2.4-2.2
			c-2.6-2.3-4.1-4.5-4.1-7.6c0-3.8,2.5-7.1,7.4-7.1c3.4,0,6.7,1.8,7,7.9h-5.1c-0.2-1.7-0.6-3.2-2.1-3.2c-1.2,0-1.7,1-1.7,2
			c0,1.4,1.5,2.6,2.8,3.8l2.3,2.1c2.7,2.5,4.2,4.8,4.2,7.9C146.8,94,144,97.2,139.3,97.2z M159.8,96.8l-2.9-11.5l-1.5,2.9v8.6h-5.9
			V70h5.9v11.5l4.8-11.5h5.7l-4.7,10.5l4.8,16.3H159.8z M178.6,86.4v10.3h-5.9V86.4L167,70h6.2l2.8,9.7l2.7-9.7h5.6L178.6,86.4z"/>
		<g>
			<path class="st4" d="M32.9,42.7v-38h64.3c1.1-0.1,2.1-0.1,3.1,0h65.3V54h4.7V4.7V0h-4.7H32.9h-4.7v4.7v41.1L32.9,42.7z"/>
			<path class="st4" d="M165.5,124v38h-64.3c-0.5,0-1,0-1.5,0c-0.5,0-1.1,0-1.6,0H32.9v-49.3h-4.7V162v4.7h4.7h132.7h4.7V162v-41.1
				L165.5,124z"/>
		</g>
	</g>
	<g class="st6">
		<path class="st4" d="M411.1,166.7h10.8v-35h0.1l21.8,35h11.5v-52.3h-10.8v35.1h-0.1l-21.8-35.1h-11.4V166.7z M368.8,166.7h39.7
			V157h-28.2v-12.8h25.4v-8.9h-25.4v-11.2h27.6v-9.7h-39.2V166.7z M326.5,166.7h39.7V157H338v-12.8h25.4v-8.9H338v-11.2h27.6v-9.7
			h-39.2V166.7z M278,166.7h22.6c16,0,23.8-11.3,23.8-26.5c0-17.3-10.2-25.9-23.8-25.9H278V166.7z M289.5,124.1h8.2
			c11.4,0,15.1,6.7,15.1,17.3c0,11.6-6.4,15.7-13.1,15.7h-10.3V124.1z M262.1,166.7h11.5v-52.3h-11.5V166.7z"/>
		<path class="st4" d="M354.5,109.5H366V87.9h21.9V79H366V66.9h25.3v-9.7h-36.8V109.5z M350.2,57.2h-11.5v32.6
			c0,7.8-2.6,11.4-10.9,11.4c-9.3,0-10.8-5.6-10.8-11.4V57.2h-11.5v32.6c0,14.3,8.1,21,22.3,21c14,0,22.4-6.9,22.4-21V57.2z
			 M256.5,109.5h11.7l4.1-11.7h19.6l4,11.7h12l-19.6-52.3h-11.8L256.5,109.5z M282.1,70.1h0.1l6.6,19.2h-13.6L282.1,70.1z"/>
		<path class="st4" d="M414.7,52.3h11.5V9.7h15.7V0H399v9.7h15.7V52.3z M397.4,0h-11.5v32.6c0,7.8-2.6,11.4-10.9,11.4
			c-9.3,0-10.8-5.6-10.8-11.4V0h-11.5v32.6c0,14.3,8.1,21,22.3,21c14,0,22.4-6.9,22.4-21V0z M304.2,52.3h11.7l4.1-11.7h19.6l4,11.7
			h12L335.9,0H324L304.2,52.3z M329.8,12.9h0.1l6.6,19.2h-13.6L329.8,12.9z M273.6,29h12.5c5,0,8.3,2.1,8.3,7.5c0,5.4-4,6.9-8.5,6.9
			h-12.3V29z M262.1,52.3h25.4c9.5,0,18.5-4.5,18.5-15.2c0-6.5-3.2-11.4-9.6-13.3c4.6-2.3,7.1-5.7,7.1-10.9c0-9.8-6.7-13-16.7-13
			h-24.6V52.3z M273.6,8.9h10.8c4.1,0,7.9,1.1,7.9,6c0,4.4-2.9,6.2-7,6.2h-11.7V8.9z"/>
	</g>
</g>
<g id="_x32_c_Invers" class="st0">
	<g class="st6">
		<g>
			<path class="st5" d="M203.1,83.4c0-16.2-13.2-29.3-29.3-29.3h-8.2v-3.7V43V4.7h-65.3c-1-0.1-2-0.1-3.1,0H32.9v38L8.5,58.8
				C0.2,64.3-4.7,73.5-4.7,83.4c0,16.2,13.2,29.3,29.3,29.3h8.2v3.7v7.4V162h65.3c0.5,0,1.1,0,1.6,0c0.5,0,1,0,1.5,0h64.3v-38
				l18.2-12.1l6.3-4.2c0.1,0,0.1-0.1,0.2-0.1l4-2.7l-0.1-0.2C198.7,100.8,203.1,92.9,203.1,83.4z M190.1,102
				c-2.3,1.6-2.3,1.6-2.3,1.6c0,0,0,0,0,0l0,0c-0.1,0.1-0.2,0.2-0.4,0.2l-4.5,3l-1.7,1.1l-36,23.8l-21.2,14l-11.4,7.5
				c-13.4,8.8-26.7,0-26.7,0l-13.9-9.2l-35-23.2c-2.3-1.6,0.5-1.6,0.5-1.6h99.7c2.8,0,5.2-1.6,5.2-1.6l12.7-8.4
				c2.3-1.6-0.5-1.6-0.5-1.6H24.6C11,108,0,97,0,83.4c0-8.6,4.4-16.2,11.1-20.6L50.1,37c2.3-1.6,2.3-1.6,2.3-1.6L75,20.5l10.9-7.2
				c13.4-8.8,26.7,0,26.7,0l10.9,7.2h0l38,25.2c2.3,1.6-0.5,1.6-0.5,1.6H61.3c-2.8,0-5.2,1.6-5.2,1.6l-12.7,8.4
				c-2.3,1.6,0.5,1.6,0.5,1.6h129.8c13.6,0,24.6,11,24.6,24.6C198.4,91.8,194.2,99.2,190.1,102z"/>
		</g>
		<g>
			<path class="st5" d="M23.8,77.4h5.1c-0.2-6.1-3.5-7.9-7-7.9c-5,0-7.4,3.3-7.4,7.1c0,3,1.5,5.3,4.1,7.6l2.4,2.2
				c1.5,1.4,2.6,2.4,2.6,3.8c0,1.1-0.4,2.2-1.7,2.2c-1.7,0-2.1-1.8-2.2-3.2h-5.5c0.2,4.8,3,7.9,7.6,7.9c4.7,0,7.5-3.2,7.5-7.2
				c0-3.1-1.5-5.4-4.2-7.9L22.8,80c-1.2-1.2-2.8-2.4-2.8-3.8c0-1,0.5-2,1.7-2C23.2,74.2,23.6,75.7,23.8,77.4"/>
			<path class="st5" d="M141.4,77.4h5.1c-0.2-6.1-3.5-7.9-7-7.9c-5,0-7.4,3.3-7.4,7.1c0,3,1.5,5.3,4.1,7.6l2.4,2.2
				c1.5,1.4,2.6,2.4,2.6,3.8c0,1.1-0.4,2.2-1.7,2.2c-1.7,0-2.1-1.8-2.2-3.2h-5.5c0.2,4.8,3,7.9,7.6,7.9c4.7,0,7.5-3.2,7.5-7.2
				c0-3.1-1.5-5.4-4.2-7.9l-2.3-2.1c-1.2-1.2-2.8-2.4-2.8-3.8c0-1,0.5-2,1.7-2C140.8,74.2,141.2,75.7,141.4,77.4"/>
			<polygon class="st5" points="117.3,96.8 130.7,96.8 130.7,91.8 123.1,91.8 123.1,70 117.3,70 			"/>
			<polygon class="st5" points="100.8,96.8 114.3,96.8 114.3,91.8 106.6,91.8 106.6,85.6 112.7,85.6 112.7,80.6 106.6,80.6 
				106.6,75 114.2,75 114.2,70 100.8,70 			"/>
			<polygon class="st5" points="87.3,96.8 93.2,96.8 93.2,75 98.2,75 98.2,70 82.3,70 82.3,75 87.3,75 			"/>
			<polygon class="st5" points="66.2,96.8 79.6,96.8 79.6,91.8 72,91.8 72,85.6 78,85.6 78,80.6 72,80.6 72,75 79.6,75 79.6,70 
				66.2,70 			"/>
			<rect x="57.3" y="70" class="st5" width="5.9" height="26.8"/>
			<polygon class="st5" points="34.7,96.9 40.2,96.9 42.8,80.7 43,80.7 45.4,96.9 50.8,96.9 55.3,70 50.1,70 48.1,85 48,85 45.9,70 
				40.4,70 38.1,85.1 38,85.1 36,70 30.2,70 			"/>
			<polygon class="st5" points="172.7,96.8 178.6,96.8 178.6,86.4 184.3,70 178.7,70 176,79.6 173.2,70 167,70 172.7,86.4 			"/>
			<polygon class="st5" points="149.6,96.8 155.4,96.8 155.4,88.2 156.9,85.3 159.8,96.8 166,96.8 161.2,80.5 165.9,70 160.2,70 
				155.4,81.5 155.4,70 149.6,70 			"/>
		</g>
	</g>
	<g class="st6">
		<g>
			<path class="st3" d="M203.1,83.4c0-16.2-13.2-29.3-29.3-29.3h-8.2v-3.7V43V4.7h-65.3c-1-0.1-2-0.1-3.1,0H32.9v38L8.5,58.8
				C0.2,64.3-4.7,73.5-4.7,83.4c0,16.2,13.2,29.3,29.3,29.3h8.2v3.7v7.4V162h65.3c0.5,0,1.1,0,1.6,0c0.5,0,1,0,1.5,0h64.3v-38
				l18.2-12.1l6.3-4.2c0.1,0,0.1-0.1,0.2-0.1l4-2.7l-0.1-0.2C198.7,100.8,203.1,92.9,203.1,83.4z M190.1,102
				c-2.3,1.6-2.3,1.6-2.3,1.6c0,0,0,0,0,0l0,0c-0.1,0.1-0.2,0.2-0.4,0.2l-4.5,3l-1.7,1.1l-36,23.8l-21.2,14l-11.4,7.5
				c-13.4,8.8-26.7,0-26.7,0l-13.9-9.2l-35-23.2c-2.3-1.6,0.5-1.6,0.5-1.6h99.7c2.8,0,5.2-1.6,5.2-1.6l12.7-8.4
				c2.3-1.6-0.5-1.6-0.5-1.6H24.6C11,108,0,97,0,83.4c0-8.6,4.4-16.2,11.1-20.6L50.1,37c2.3-1.6,2.3-1.6,2.3-1.6L75,20.5l10.9-7.2
				c13.4-8.8,26.7,0,26.7,0l10.9,7.2h0l38,25.2c2.3,1.6-0.5,1.6-0.5,1.6H61.3c-2.8,0-5.2,1.6-5.2,1.6l-12.7,8.4
				c-2.3,1.6,0.5,1.6,0.5,1.6h129.8c13.6,0,24.6,11,24.6,24.6C198.4,91.8,194.2,99.2,190.1,102z"/>
		</g>
		<g>
			<path class="st5" d="M23.8,77.4h5.1c-0.2-6.1-3.5-7.9-7-7.9c-5,0-7.4,3.3-7.4,7.1c0,3,1.5,5.3,4.1,7.6l2.4,2.2
				c1.5,1.4,2.6,2.4,2.6,3.8c0,1.1-0.4,2.2-1.7,2.2c-1.7,0-2.1-1.8-2.2-3.2h-5.5c0.2,4.8,3,7.9,7.6,7.9c4.7,0,7.5-3.2,7.5-7.2
				c0-3.1-1.5-5.4-4.2-7.9L22.8,80c-1.2-1.2-2.8-2.4-2.8-3.8c0-1,0.5-2,1.7-2C23.2,74.2,23.6,75.7,23.8,77.4"/>
			<path class="st5" d="M141.4,77.4h5.1c-0.2-6.1-3.5-7.9-7-7.9c-5,0-7.4,3.3-7.4,7.1c0,3,1.5,5.3,4.1,7.6l2.4,2.2
				c1.5,1.4,2.6,2.4,2.6,3.8c0,1.1-0.4,2.2-1.7,2.2c-1.7,0-2.1-1.8-2.2-3.2h-5.5c0.2,4.8,3,7.9,7.6,7.9c4.7,0,7.5-3.2,7.5-7.2
				c0-3.1-1.5-5.4-4.2-7.9l-2.3-2.1c-1.2-1.2-2.8-2.4-2.8-3.8c0-1,0.5-2,1.7-2C140.8,74.2,141.2,75.7,141.4,77.4"/>
			<polygon class="st5" points="117.3,96.8 130.7,96.8 130.7,91.8 123.1,91.8 123.1,70 117.3,70 			"/>
			<polygon class="st5" points="100.8,96.8 114.3,96.8 114.3,91.8 106.6,91.8 106.6,85.6 112.7,85.6 112.7,80.6 106.6,80.6 
				106.6,75 114.2,75 114.2,70 100.8,70 			"/>
			<polygon class="st5" points="87.3,96.8 93.2,96.8 93.2,75 98.2,75 98.2,70 82.3,70 82.3,75 87.3,75 			"/>
			<polygon class="st5" points="66.2,96.8 79.6,96.8 79.6,91.8 72,91.8 72,85.6 78,85.6 78,80.6 72,80.6 72,75 79.6,75 79.6,70 
				66.2,70 			"/>
			<rect x="57.3" y="70" class="st5" width="5.9" height="26.8"/>
			<polygon class="st5" points="34.7,96.9 40.2,96.9 42.8,80.7 43,80.7 45.4,96.9 50.8,96.9 55.3,70 50.1,70 48.1,85 48,85 45.9,70 
				40.4,70 38.1,85.1 38,85.1 36,70 30.2,70 			"/>
			<polygon class="st5" points="172.7,96.8 178.6,96.8 178.6,86.4 184.3,70 178.7,70 176,79.6 173.2,70 167,70 172.7,86.4 			"/>
			<polygon class="st5" points="149.6,96.8 155.4,96.8 155.4,88.2 156.9,85.3 159.8,96.8 166,96.8 161.2,80.5 165.9,70 160.2,70 
				155.4,81.5 155.4,70 149.6,70 			"/>
		</g>
	</g>
	<g class="st6">
		<path class="st3" d="M411.1,166.7h10.8v-35h0.1l21.8,35h11.5v-52.3h-10.8v35.1h-0.1l-21.8-35.1h-11.4V166.7z M368.8,166.7h39.7
			V157h-28.2v-12.8h25.4v-8.9h-25.4v-11.2h27.6v-9.7h-39.2V166.7z M326.5,166.7h39.7V157H338v-12.8h25.4v-8.9H338v-11.2h27.6v-9.7
			h-39.2V166.7z M278,166.7h22.6c16,0,23.8-11.3,23.8-26.5c0-17.3-10.2-25.9-23.8-25.9H278V166.7z M289.5,124.1h8.2
			c11.4,0,15.1,6.7,15.1,17.3c0,11.6-6.4,15.7-13.1,15.7h-10.3V124.1z M262.1,166.7h11.5v-52.3h-11.5V166.7z"/>
		<path class="st3" d="M354.5,109.5H366V87.9h21.9V79H366V66.9h25.3v-9.7h-36.8V109.5z M350.2,57.2h-11.5v32.6
			c0,7.8-2.6,11.4-10.9,11.4c-9.3,0-10.8-5.6-10.8-11.4V57.2h-11.5v32.6c0,14.3,8.1,21,22.3,21c14,0,22.4-6.9,22.4-21V57.2z
			 M256.5,109.5h11.7l4.1-11.7h19.6l4,11.7h12l-19.6-52.3h-11.8L256.5,109.5z M282.1,70.1h0.1l6.6,19.2h-13.6L282.1,70.1z"/>
		<path class="st3" d="M414.7,52.3h11.5V9.7h15.7V0H399v9.7h15.7V52.3z M397.4,0h-11.5v32.6c0,7.8-2.6,11.4-10.9,11.4
			c-9.3,0-10.8-5.6-10.8-11.4V0h-11.5v32.6c0,14.3,8.1,21,22.3,21c14,0,22.4-6.9,22.4-21V0z M304.2,52.3h11.7l4.1-11.7h19.6l4,11.7
			h12L335.9,0H324L304.2,52.3z M329.8,12.9h0.1l6.6,19.2h-13.6L329.8,12.9z M273.6,29h12.5c5,0,8.3,2.1,8.3,7.5c0,5.4-4,6.9-8.5,6.9
			h-12.3V29z M262.1,52.3h25.4c9.5,0,18.5-4.5,18.5-15.2c0-6.5-3.2-11.4-9.6-13.3c4.6-2.3,7.1-5.7,7.1-10.9c0-9.8-6.7-13-16.7-13
			h-24.6V52.3z M273.6,8.9h10.8c4.1,0,7.9,1.1,7.9,6c0,4.4-2.9,6.2-7,6.2h-11.7V8.9z"/>
	</g>
</g>
</svg>
