<?xml version="1.0" encoding="utf-8"?>
<!-- Generator: Adobe Illustrator 25.4.1, SVG Export Plug-In . SVG Version: 6.00 Build 0)  -->
<svg version="1.1"
	 id="svg1246" inkscape:version="1.0 (4035a4fb49, 2020-05-01)" xmlns:cc="http://creativecommons.org/ns#" xmlns:dc="http://purl.org/dc/elements/1.1/" xmlns:inkscape="http://www.inkscape.org/namespaces/inkscape" xmlns:rdf="http://www.w3.org/1999/02/22-rdf-syntax-ns#" xmlns:sodipodi="http://sodipodi.sourceforge.net/DTD/sodipodi-0.dtd" xmlns:svg="http://www.w3.org/2000/svg"
	 xmlns="http://www.w3.org/2000/svg" xmlns:xlink="http://www.w3.org/1999/xlink" x="0px" y="0px" viewBox="0 0 164 110.5"
	 style="enable-background:new 0 0 164 110.5;" xml:space="preserve">
<style type="text/css">
	.st0{fill:#E0F3FF;}
	.st1{fill:#FDE1C5;}
	.st2{fill:none;stroke:#F17A23;stroke-width:5;stroke-linecap:round;}
	.st3{fill:none;stroke:#00385E;stroke-width:5;stroke-linecap:round;}
	.st4{fill:none;stroke:#DEE2E6;stroke-width:5;stroke-linecap:round;}
	.st5{fill:none;}
</style>
<sodipodi:namedview  bordercolor="#666666" borderopacity="1" gridtolerance="10" guidetolerance="10" id="namedview1248" inkscape:current-layer="Komponente_15_5" inkscape:cx="48.884759" inkscape:cy="67.412433" inkscape:pageopacity="0" inkscape:pageshadow="2" inkscape:snap-grids="true" inkscape:window-height="1377" inkscape:window-maximized="1" inkscape:window-width="2560" inkscape:window-x="-8" inkscape:window-y="-8" inkscape:zoom="5.3710407" objecttolerance="10" pagecolor="#ffffff" showgrid="false">
	</sodipodi:namedview>
<rect id="rect1262" x="59" y="19.1" class="st0" width="98" height="37.5"/>
<path id="Rechteck_71" class="st1" d="M4,65.5h156c2.2,0,4,1.8,4,4v37c0,2.2-1.8,4-4,4H4c-2.2,0-4-1.8-4-4v-37
	C0,67.3,1.8,65.5,4,65.5z"/>
<line id="Linie_50" class="st2" x1="58.5" y1="98.3" x2="156.5" y2="98.3"/>
<line id="Linie_51" class="st2" x1="58.5" y1="77.3" x2="156.5" y2="77.3"/>
<line id="Linie_52" class="st3" x1="59" y1="56.6" x2="157" y2="56.6"/>
<line id="line1338" class="st3" x1="110" y1="50.6" x2="123" y2="43.1"/>
<line id="Linie_53" class="st3" x1="110.6" y1="26" x2="97.6" y2="33.5"/>
<line id="line1340" class="st3" x1="110" y1="50.6" x2="97" y2="43.1"/>
<line id="Linie_54" class="st3" x1="110.6" y1="26" x2="123.6" y2="33.5"/>
<line id="Linie_55" class="st3" x1="59" y1="19.1" x2="157" y2="19.1"/>
<line id="Linie_57" class="st4" x1="58.6" y1="2.5" x2="156.6" y2="2.5"/>
<line id="Linie_69" class="st2" x1="28.5" y1="93.5" x2="41.5" y2="86"/>
<line id="Linie_70" class="st2" x1="28.5" y1="93.5" x2="15.5" y2="86"/>
<rect id="rect1256" x="115.8" y="33.7" class="st5" width="1.1" height="3.5"/>
</svg>
